G04 #@! TF.FileFunction,Copper,L2,Bot,Signal*
%FSLAX46Y46*%
G04 Gerber Fmt 4.6, Leading zero omitted, Abs format (unit mm)*
G04 Created by KiCad (PCBNEW 4.0.7-e2-6376~58~ubuntu16.04.1) date Tue Oct 16 16:27:12 2018*
%MOMM*%
%LPD*%
G01*
G04 APERTURE LIST*
%ADD10C,0.100000*%
%ADD11C,0.250000*%
%ADD12C,0.500000*%
%ADD13C,1.000000*%
%ADD14C,1.700000*%
%ADD15O,1.700000X1.700000*%
%ADD16R,1.700000X1.700000*%
%ADD17C,3.000000*%
%ADD18R,3.000000X3.000000*%
%ADD19C,0.400000*%
%ADD20C,0.254000*%
G04 APERTURE END LIST*
D10*
D11*
X156082001Y-118194333D02*
X156129621Y-118146714D01*
X156224859Y-118003857D01*
X156272478Y-117908619D01*
X156320097Y-117765762D01*
X156367716Y-117527667D01*
X156367716Y-117337190D01*
X156320097Y-117099095D01*
X156272478Y-116956238D01*
X156224859Y-116861000D01*
X156129621Y-116718143D01*
X156082001Y-116670524D01*
X155129620Y-117718143D02*
X155177239Y-117765762D01*
X155320096Y-117813381D01*
X155415334Y-117813381D01*
X155558192Y-117765762D01*
X155653430Y-117670524D01*
X155701049Y-117575286D01*
X155748668Y-117384810D01*
X155748668Y-117241952D01*
X155701049Y-117051476D01*
X155653430Y-116956238D01*
X155558192Y-116861000D01*
X155415334Y-116813381D01*
X155320096Y-116813381D01*
X155177239Y-116861000D01*
X155129620Y-116908619D01*
X154796287Y-118194333D02*
X154748668Y-118146714D01*
X154653430Y-118003857D01*
X154605811Y-117908619D01*
X154558192Y-117765762D01*
X154510573Y-117527667D01*
X154510573Y-117337190D01*
X154558192Y-117099095D01*
X154605811Y-116956238D01*
X154653430Y-116861000D01*
X154748668Y-116718143D01*
X154796287Y-116670524D01*
X153272477Y-117289571D02*
X152939143Y-117289571D01*
X152796286Y-117813381D02*
X153272477Y-117813381D01*
X153272477Y-116813381D01*
X152796286Y-116813381D01*
X152367715Y-117718143D02*
X152320096Y-117765762D01*
X152367715Y-117813381D01*
X152415334Y-117765762D01*
X152367715Y-117718143D01*
X152367715Y-117813381D01*
X151177239Y-117527667D02*
X150701048Y-117527667D01*
X151272477Y-117813381D02*
X150939144Y-116813381D01*
X150605810Y-117813381D01*
X150129620Y-117813381D02*
X150224858Y-117765762D01*
X150272477Y-117670524D01*
X150272477Y-116813381D01*
X149367714Y-117765762D02*
X149462952Y-117813381D01*
X149653429Y-117813381D01*
X149748667Y-117765762D01*
X149796286Y-117670524D01*
X149796286Y-117289571D01*
X149748667Y-117194333D01*
X149653429Y-117146714D01*
X149462952Y-117146714D01*
X149367714Y-117194333D01*
X149320095Y-117289571D01*
X149320095Y-117384810D01*
X149796286Y-117480048D01*
X148462952Y-117146714D02*
X148462952Y-117956238D01*
X148510571Y-118051476D01*
X148558190Y-118099095D01*
X148653429Y-118146714D01*
X148796286Y-118146714D01*
X148891524Y-118099095D01*
X148462952Y-117765762D02*
X148558190Y-117813381D01*
X148748667Y-117813381D01*
X148843905Y-117765762D01*
X148891524Y-117718143D01*
X148939143Y-117622905D01*
X148939143Y-117337190D01*
X148891524Y-117241952D01*
X148843905Y-117194333D01*
X148748667Y-117146714D01*
X148558190Y-117146714D01*
X148462952Y-117194333D01*
X147986762Y-117813381D02*
X147986762Y-117146714D01*
X147986762Y-117337190D02*
X147939143Y-117241952D01*
X147891524Y-117194333D01*
X147796286Y-117146714D01*
X147701047Y-117146714D01*
X146986761Y-117765762D02*
X147081999Y-117813381D01*
X147272476Y-117813381D01*
X147367714Y-117765762D01*
X147415333Y-117670524D01*
X147415333Y-117289571D01*
X147367714Y-117194333D01*
X147272476Y-117146714D01*
X147081999Y-117146714D01*
X146986761Y-117194333D01*
X146939142Y-117289571D01*
X146939142Y-117384810D01*
X147415333Y-117480048D01*
X145748666Y-117813381D02*
X145748666Y-116813381D01*
X145415332Y-117527667D01*
X145081999Y-116813381D01*
X145081999Y-117813381D01*
X144224856Y-117765762D02*
X144320094Y-117813381D01*
X144510571Y-117813381D01*
X144605809Y-117765762D01*
X144653428Y-117670524D01*
X144653428Y-117289571D01*
X144605809Y-117194333D01*
X144510571Y-117146714D01*
X144320094Y-117146714D01*
X144224856Y-117194333D01*
X144177237Y-117289571D01*
X144177237Y-117384810D01*
X144653428Y-117480048D01*
X143748666Y-117146714D02*
X143748666Y-117813381D01*
X143748666Y-117241952D02*
X143701047Y-117194333D01*
X143605809Y-117146714D01*
X143462951Y-117146714D01*
X143367713Y-117194333D01*
X143320094Y-117289571D01*
X143320094Y-117813381D01*
X142415332Y-117813381D02*
X142415332Y-116813381D01*
X142415332Y-117765762D02*
X142510570Y-117813381D01*
X142701047Y-117813381D01*
X142796285Y-117765762D01*
X142843904Y-117718143D01*
X142891523Y-117622905D01*
X142891523Y-117337190D01*
X142843904Y-117241952D01*
X142796285Y-117194333D01*
X142701047Y-117146714D01*
X142510570Y-117146714D01*
X142415332Y-117194333D01*
X141796285Y-117813381D02*
X141891523Y-117765762D01*
X141939142Y-117718143D01*
X141986761Y-117622905D01*
X141986761Y-117337190D01*
X141939142Y-117241952D01*
X141891523Y-117194333D01*
X141796285Y-117146714D01*
X141653427Y-117146714D01*
X141558189Y-117194333D01*
X141510570Y-117241952D01*
X141462951Y-117337190D01*
X141462951Y-117622905D01*
X141510570Y-117718143D01*
X141558189Y-117765762D01*
X141653427Y-117813381D01*
X141796285Y-117813381D01*
X141129618Y-117146714D02*
X140605808Y-117146714D01*
X141129618Y-117813381D01*
X140605808Y-117813381D01*
X139796284Y-117813381D02*
X139796284Y-117289571D01*
X139843903Y-117194333D01*
X139939141Y-117146714D01*
X140129618Y-117146714D01*
X140224856Y-117194333D01*
X139796284Y-117765762D02*
X139891522Y-117813381D01*
X140129618Y-117813381D01*
X140224856Y-117765762D01*
X140272475Y-117670524D01*
X140272475Y-117575286D01*
X140224856Y-117480048D01*
X140129618Y-117432429D01*
X139891522Y-117432429D01*
X139796284Y-117384810D01*
X149796286Y-118658619D02*
X149748667Y-118611000D01*
X149653429Y-118563381D01*
X149415333Y-118563381D01*
X149320095Y-118611000D01*
X149272476Y-118658619D01*
X149224857Y-118753857D01*
X149224857Y-118849095D01*
X149272476Y-118991952D01*
X149843905Y-119563381D01*
X149224857Y-119563381D01*
X148605810Y-118563381D02*
X148510571Y-118563381D01*
X148415333Y-118611000D01*
X148367714Y-118658619D01*
X148320095Y-118753857D01*
X148272476Y-118944333D01*
X148272476Y-119182429D01*
X148320095Y-119372905D01*
X148367714Y-119468143D01*
X148415333Y-119515762D01*
X148510571Y-119563381D01*
X148605810Y-119563381D01*
X148701048Y-119515762D01*
X148748667Y-119468143D01*
X148796286Y-119372905D01*
X148843905Y-119182429D01*
X148843905Y-118944333D01*
X148796286Y-118753857D01*
X148748667Y-118658619D01*
X148701048Y-118611000D01*
X148605810Y-118563381D01*
X147320095Y-119563381D02*
X147891524Y-119563381D01*
X147605810Y-119563381D02*
X147605810Y-118563381D01*
X147701048Y-118706238D01*
X147796286Y-118801476D01*
X147891524Y-118849095D01*
X146748667Y-118991952D02*
X146843905Y-118944333D01*
X146891524Y-118896714D01*
X146939143Y-118801476D01*
X146939143Y-118753857D01*
X146891524Y-118658619D01*
X146843905Y-118611000D01*
X146748667Y-118563381D01*
X146558190Y-118563381D01*
X146462952Y-118611000D01*
X146415333Y-118658619D01*
X146367714Y-118753857D01*
X146367714Y-118801476D01*
X146415333Y-118896714D01*
X146462952Y-118944333D01*
X146558190Y-118991952D01*
X146748667Y-118991952D01*
X146843905Y-119039571D01*
X146891524Y-119087190D01*
X146939143Y-119182429D01*
X146939143Y-119372905D01*
X146891524Y-119468143D01*
X146843905Y-119515762D01*
X146748667Y-119563381D01*
X146558190Y-119563381D01*
X146462952Y-119515762D01*
X146415333Y-119468143D01*
X146367714Y-119372905D01*
X146367714Y-119182429D01*
X146415333Y-119087190D01*
X146462952Y-119039571D01*
X146558190Y-118991952D01*
D12*
X154280429Y-108791143D02*
X152613762Y-108791143D01*
X151899476Y-109838762D02*
X154280429Y-109838762D01*
X154280429Y-107838762D01*
X151899476Y-107838762D01*
X149994714Y-109267333D02*
X147613762Y-109267333D01*
X150470905Y-109838762D02*
X148804238Y-107838762D01*
X147137571Y-109838762D01*
X145470905Y-109838762D02*
X145470905Y-107838762D01*
X143804238Y-109267333D01*
X142137571Y-107838762D01*
X142137571Y-109838762D01*
D13*
X126492000Y-149606000D03*
D14*
X159512000Y-69596000D03*
D15*
X159512000Y-72136000D03*
X159512000Y-74676000D03*
X159512000Y-77216000D03*
X159512000Y-79756000D03*
X159512000Y-82296000D03*
X159512000Y-84836000D03*
X159512000Y-87376000D03*
X159512000Y-89916000D03*
X159512000Y-92456000D03*
X159512000Y-94996000D03*
X159512000Y-97536000D03*
X159512000Y-100076000D03*
X159512000Y-102616000D03*
X159512000Y-105156000D03*
X159512000Y-107696000D03*
X159512000Y-110236000D03*
X159512000Y-112776000D03*
X159512000Y-115316000D03*
X159512000Y-117856000D03*
X159512000Y-120396000D03*
X159512000Y-122936000D03*
X159512000Y-125476000D03*
X159512000Y-128016000D03*
X159512000Y-130556000D03*
X159512000Y-133096000D03*
X159512000Y-135596000D03*
X136652000Y-133096000D03*
X136652000Y-130556000D03*
X136652000Y-122936000D03*
X136652000Y-125476000D03*
X136652000Y-128016000D03*
X136652000Y-135636000D03*
X136652000Y-77216000D03*
X136652000Y-79756000D03*
X136652000Y-82296000D03*
X136652000Y-84836000D03*
X136652000Y-74676000D03*
D16*
X136652000Y-69596000D03*
D15*
X136652000Y-72136000D03*
X136652000Y-87376000D03*
X136652000Y-89916000D03*
X136652000Y-92456000D03*
X136652000Y-94996000D03*
X136652000Y-97536000D03*
X136652000Y-100076000D03*
X136652000Y-102616000D03*
X136652000Y-105156000D03*
X136652000Y-107696000D03*
X136652000Y-110236000D03*
X136652000Y-112776000D03*
X136652000Y-115316000D03*
X136652000Y-117856000D03*
X136652000Y-120396000D03*
X140152000Y-135636000D03*
X140152000Y-128016000D03*
X140152000Y-133096000D03*
X140152000Y-130556000D03*
X142692000Y-133096000D03*
X142692000Y-135636000D03*
X142692000Y-130556000D03*
X145232000Y-135636000D03*
X145232000Y-133096000D03*
X145232000Y-130556000D03*
X147772000Y-135636000D03*
X147772000Y-133096000D03*
X147772000Y-130556000D03*
X150312000Y-133096000D03*
X150312000Y-135636000D03*
X150312000Y-130556000D03*
X152852000Y-133096000D03*
X152852000Y-135636000D03*
X152852000Y-130556000D03*
D17*
X148082000Y-95166000D03*
D18*
X148082000Y-74676000D03*
D16*
X121412000Y-69596000D03*
D15*
X121412000Y-72136000D03*
X121412000Y-74676000D03*
X121412000Y-77216000D03*
X121412000Y-79756000D03*
X121412000Y-82296000D03*
X121412000Y-84836000D03*
X121412000Y-87376000D03*
X121412000Y-89916000D03*
X121412000Y-92456000D03*
X121412000Y-94996000D03*
X121412000Y-97536000D03*
X121412000Y-100076000D03*
X121412000Y-102616000D03*
X121412000Y-105156000D03*
X121412000Y-107696000D03*
X121412000Y-110236000D03*
X121412000Y-112776000D03*
X121412000Y-115316000D03*
X121412000Y-117856000D03*
X121412000Y-120396000D03*
X121412000Y-122936000D03*
X121412000Y-125476000D03*
X121412000Y-128016000D03*
X121412000Y-130556000D03*
X121412000Y-133096000D03*
X121412000Y-135636000D03*
D16*
X174752000Y-69596000D03*
D15*
X174752000Y-72136000D03*
X174752000Y-74676000D03*
X174752000Y-77216000D03*
X174752000Y-79756000D03*
X174752000Y-82296000D03*
X174752000Y-84836000D03*
X174752000Y-87376000D03*
X174752000Y-89916000D03*
X174752000Y-92456000D03*
X174752000Y-94996000D03*
X174752000Y-97536000D03*
X174752000Y-100076000D03*
X174752000Y-102616000D03*
X174752000Y-105156000D03*
X174752000Y-107696000D03*
X174752000Y-110236000D03*
X174752000Y-112776000D03*
X174752000Y-115316000D03*
X174752000Y-117856000D03*
X174752000Y-120396000D03*
X174752000Y-122936000D03*
X174752000Y-125476000D03*
X174752000Y-128016000D03*
X174752000Y-130556000D03*
X174752000Y-133096000D03*
X174752000Y-135636000D03*
D16*
X165862000Y-69596000D03*
D15*
X168402000Y-69596000D03*
D16*
X136652000Y-145796000D03*
D15*
X136652000Y-148336000D03*
X139192000Y-145796000D03*
X139192000Y-148336000D03*
X141732000Y-145796000D03*
X141732000Y-148336000D03*
X144272000Y-145796000D03*
X144272000Y-148336000D03*
X146812000Y-145796000D03*
X146812000Y-148336000D03*
X149352000Y-145796000D03*
X149352000Y-148336000D03*
X151892000Y-145796000D03*
X151892000Y-148336000D03*
X154432000Y-145796000D03*
X154432000Y-148336000D03*
X156972000Y-145796000D03*
X156972000Y-148336000D03*
X159512000Y-145796000D03*
X159512000Y-148336000D03*
D13*
X167640000Y-59436000D03*
D12*
X174752000Y-135636000D02*
X159552000Y-135636000D01*
X159552000Y-135636000D02*
X159512000Y-135596000D01*
X136652000Y-69596000D02*
X121412000Y-69596000D01*
X148082000Y-74676000D02*
X136652000Y-74676000D01*
X136652000Y-74676000D02*
X121412000Y-74676000D01*
X121412000Y-72136000D02*
X136652000Y-72136000D01*
X121412000Y-77216000D02*
X136652000Y-77216000D01*
X136652000Y-79756000D02*
X121412000Y-79756000D01*
X121412000Y-82296000D02*
X136652000Y-82296000D01*
X136652000Y-84836000D02*
X121412000Y-84836000D01*
X121412000Y-87376000D02*
X136652000Y-87376000D01*
X136652000Y-89916000D02*
X121412000Y-89916000D01*
X136652000Y-92456000D02*
X121412000Y-92456000D01*
X121412000Y-94996000D02*
X136652000Y-94996000D01*
X136652000Y-97536000D02*
X121412000Y-97536000D01*
X121412000Y-100076000D02*
X136652000Y-100076000D01*
X136652000Y-102616000D02*
X121412000Y-102616000D01*
X121412000Y-105156000D02*
X136652000Y-105156000D01*
X136652000Y-107696000D02*
X121412000Y-107696000D01*
X121412000Y-110236000D02*
X136652000Y-110236000D01*
X136652000Y-112776000D02*
X121412000Y-112776000D01*
X121412000Y-115316000D02*
X136652000Y-115316000D01*
X136652000Y-117856000D02*
X121412000Y-117856000D01*
X121412000Y-120396000D02*
X136652000Y-120396000D01*
X136652000Y-122936000D02*
X121412000Y-122936000D01*
X121412000Y-125476000D02*
X136652000Y-125476000D01*
X136652000Y-128016000D02*
X121412000Y-128016000D01*
X121412000Y-130556000D02*
X136652000Y-130556000D01*
X136652000Y-133096000D02*
X121412000Y-133096000D01*
X121412000Y-135636000D02*
X136652000Y-135636000D01*
X168402000Y-69596000D02*
X174752000Y-69596000D01*
X159512000Y-79756000D02*
X174752000Y-79756000D01*
X159512000Y-82296000D02*
X174752000Y-82296000D01*
X174752000Y-84836000D02*
X159512000Y-84836000D01*
X159512000Y-87376000D02*
X174752000Y-87376000D01*
X159512000Y-89916000D02*
X174752000Y-89916000D01*
X159512000Y-92456000D02*
X174752000Y-92456000D01*
X174752000Y-94996000D02*
X159512000Y-94996000D01*
X159512000Y-97536000D02*
X173549919Y-97536000D01*
X173549919Y-97536000D02*
X174752000Y-97536000D01*
X174752000Y-100076000D02*
X159512000Y-100076000D01*
X159512000Y-102616000D02*
X174752000Y-102616000D01*
X174752000Y-105156000D02*
X159512000Y-105156000D01*
X159512000Y-107696000D02*
X174752000Y-107696000D01*
X174752000Y-110236000D02*
X159512000Y-110236000D01*
X159512000Y-112776000D02*
X174752000Y-112776000D01*
X174752000Y-115316000D02*
X159512000Y-115316000D01*
X159512000Y-117856000D02*
X174752000Y-117856000D01*
X174752000Y-120396000D02*
X160714081Y-120396000D01*
X160714081Y-120396000D02*
X159512000Y-120396000D01*
X159512000Y-122936000D02*
X174752000Y-122936000D01*
X159512000Y-125476000D02*
X174752000Y-125476000D01*
X159512000Y-128016000D02*
X174752000Y-128016000D01*
X159512000Y-130556000D02*
X174752000Y-130556000D01*
X159512000Y-133096000D02*
X174752000Y-133096000D01*
X165862000Y-69596000D02*
X159512000Y-69596000D01*
D19*
X139192000Y-145796000D02*
X139192000Y-140025000D01*
X139192000Y-140025000D02*
X140152000Y-139065000D01*
X140152000Y-139065000D02*
X140152000Y-135636000D01*
X159512000Y-148336000D02*
X160762001Y-147085999D01*
X160762001Y-147085999D02*
X160762001Y-140569001D01*
X160762001Y-140569001D02*
X157988000Y-137795000D01*
X157988000Y-137795000D02*
X157988000Y-127889000D01*
X157988000Y-127889000D02*
X154559000Y-124460000D01*
X143708000Y-124460000D02*
X140152000Y-128016000D01*
X154559000Y-124460000D02*
X143708000Y-124460000D01*
X140152000Y-133096000D02*
X138901999Y-134346001D01*
X138901999Y-134346001D02*
X138901999Y-138974001D01*
X138901999Y-138974001D02*
X136652000Y-141224000D01*
X136652000Y-141224000D02*
X136652000Y-145796000D01*
X140152000Y-130556000D02*
X138176000Y-132532000D01*
X138176000Y-132532000D02*
X138176000Y-138156001D01*
X138176000Y-138156001D02*
X135128000Y-141204001D01*
X135128000Y-141204001D02*
X135128000Y-146812000D01*
X135128000Y-146812000D02*
X136652000Y-148336000D01*
X139192000Y-148336000D02*
X140442001Y-147085999D01*
X142692000Y-133785998D02*
X142692000Y-133096000D01*
X140442001Y-147085999D02*
X140442001Y-140064998D01*
X140442001Y-140064998D02*
X141441999Y-139065000D01*
X141441999Y-135035999D02*
X142692000Y-133785998D01*
X141441999Y-139065000D02*
X141441999Y-135035999D01*
X141732000Y-145796000D02*
X141732000Y-140025000D01*
X141732000Y-140025000D02*
X142692000Y-139065000D01*
X142692000Y-139065000D02*
X142692000Y-135636000D01*
X159512000Y-145796000D02*
X159512000Y-140462000D01*
X159512000Y-140462000D02*
X157226000Y-138176000D01*
X147772000Y-125476000D02*
X142692000Y-130556000D01*
X157226000Y-138176000D02*
X157226000Y-128270000D01*
X157226000Y-128270000D02*
X154432000Y-125476000D01*
X154432000Y-125476000D02*
X147772000Y-125476000D01*
X144272000Y-145796000D02*
X144272000Y-140025000D01*
X144272000Y-140025000D02*
X145232000Y-139065000D01*
X145232000Y-139065000D02*
X145232000Y-135636000D01*
X141732000Y-148336000D02*
X142982001Y-147085999D01*
X142982001Y-147085999D02*
X142982001Y-140064998D01*
X142982001Y-140064998D02*
X143981999Y-139065000D01*
X143981999Y-139065000D02*
X143981999Y-134346001D01*
X143981999Y-134346001D02*
X145232000Y-133096000D01*
X156482019Y-139845019D02*
X156972000Y-140335000D01*
X145232000Y-130556000D02*
X148788000Y-127000000D01*
X148788000Y-127000000D02*
X154432000Y-127000000D01*
X154432000Y-127000000D02*
X156482019Y-129050019D01*
X156482019Y-129050019D02*
X156482019Y-139845019D01*
X156972000Y-140335000D02*
X156972000Y-145796000D01*
X146812000Y-145796000D02*
X146812000Y-140025000D01*
X147772000Y-139065000D02*
X147772000Y-136838081D01*
X146812000Y-140025000D02*
X147772000Y-139065000D01*
X147772000Y-136838081D02*
X147772000Y-135636000D01*
X144272000Y-148336000D02*
X145522001Y-147085999D01*
X145522001Y-147085999D02*
X145522001Y-140064998D01*
X145522001Y-140064998D02*
X146521999Y-139065000D01*
X146521999Y-139065000D02*
X146521999Y-135035999D01*
X146521999Y-135035999D02*
X147772000Y-133785998D01*
X147772000Y-133785998D02*
X147772000Y-133096000D01*
X154432000Y-148336000D02*
X154432000Y-147646002D01*
X154432000Y-147646002D02*
X155721999Y-146356003D01*
X155721999Y-146356003D02*
X155721999Y-129940999D01*
X153797000Y-128016000D02*
X150312000Y-128016000D01*
X155721999Y-129940999D02*
X153797000Y-128016000D01*
X150312000Y-128016000D02*
X149352000Y-128976000D01*
X149352000Y-128976000D02*
X147772000Y-130556000D01*
X146812000Y-148336000D02*
X148101999Y-147046001D01*
X148101999Y-147046001D02*
X148101999Y-140025000D01*
X148101999Y-140025000D02*
X149061999Y-139065000D01*
X149061999Y-139065000D02*
X149061999Y-134346001D01*
X149061999Y-134346001D02*
X149462001Y-133945999D01*
X149462001Y-133945999D02*
X150312000Y-133096000D01*
X149352000Y-145796000D02*
X149352000Y-140152000D01*
X149352000Y-140152000D02*
X150312000Y-139192000D01*
X150312000Y-139192000D02*
X150312000Y-135636000D01*
X150312000Y-130556000D02*
X151836000Y-129032000D01*
X151836000Y-129032000D02*
X153543000Y-129032000D01*
X154813000Y-130302000D02*
X154813000Y-139914999D01*
X153543000Y-129032000D02*
X154813000Y-130302000D01*
X154813000Y-139914999D02*
X154432000Y-140295999D01*
X154471001Y-140295999D02*
X154432000Y-140295999D01*
X154432000Y-140295999D02*
X154432000Y-145796000D01*
X149352000Y-148336000D02*
X150602001Y-147085999D01*
X150602001Y-147085999D02*
X150602001Y-140318998D01*
X150602001Y-140318998D02*
X151601999Y-139319000D01*
X151601999Y-139319000D02*
X151601999Y-134346001D01*
X151601999Y-134346001D02*
X152002001Y-133945999D01*
X152002001Y-133945999D02*
X152852000Y-133096000D01*
X151892000Y-145796000D02*
X151892000Y-140279000D01*
X151892000Y-140279000D02*
X152852000Y-139319000D01*
X152852000Y-139319000D02*
X152852000Y-135636000D01*
X151892000Y-148336000D02*
X153181999Y-147046001D01*
X153181999Y-147046001D02*
X153181999Y-140239002D01*
X153181999Y-140239002D02*
X154102001Y-139319000D01*
X154102001Y-139319000D02*
X154102001Y-131806001D01*
X154102001Y-131806001D02*
X152852000Y-130556000D01*
D20*
G36*
X179122000Y-152706000D02*
X117042000Y-152706000D01*
X117042000Y-150048619D01*
X117906613Y-150048619D01*
X118246155Y-150870372D01*
X118874321Y-151499636D01*
X119695481Y-151840611D01*
X120584619Y-151841387D01*
X121406372Y-151501845D01*
X122035636Y-150873679D01*
X122376611Y-150052519D01*
X122376759Y-149882661D01*
X125094758Y-149882661D01*
X125306990Y-150396303D01*
X125699630Y-150789629D01*
X126212900Y-151002757D01*
X126768661Y-151003242D01*
X127282303Y-150791010D01*
X127675629Y-150398370D01*
X127820858Y-150048619D01*
X173786613Y-150048619D01*
X174126155Y-150870372D01*
X174754321Y-151499636D01*
X175575481Y-151840611D01*
X176464619Y-151841387D01*
X177286372Y-151501845D01*
X177915636Y-150873679D01*
X178256611Y-150052519D01*
X178257387Y-149163381D01*
X177917845Y-148341628D01*
X177289679Y-147712364D01*
X176468519Y-147371389D01*
X175579381Y-147370613D01*
X174757628Y-147710155D01*
X174128364Y-148338321D01*
X173787389Y-149159481D01*
X173786613Y-150048619D01*
X127820858Y-150048619D01*
X127888757Y-149885100D01*
X127889242Y-149329339D01*
X127677010Y-148815697D01*
X127284370Y-148422371D01*
X126771100Y-148209243D01*
X126215339Y-148208758D01*
X125701697Y-148420990D01*
X125308371Y-148813630D01*
X125095243Y-149326900D01*
X125094758Y-149882661D01*
X122376759Y-149882661D01*
X122377387Y-149163381D01*
X122037845Y-148341628D01*
X121409679Y-147712364D01*
X120588519Y-147371389D01*
X119699381Y-147370613D01*
X118877628Y-147710155D01*
X118248364Y-148338321D01*
X117907389Y-149159481D01*
X117906613Y-150048619D01*
X117042000Y-150048619D01*
X117042000Y-72136000D01*
X119897907Y-72136000D01*
X120010946Y-72704285D01*
X120332853Y-73186054D01*
X120662026Y-73406000D01*
X120332853Y-73625946D01*
X120010946Y-74107715D01*
X119897907Y-74676000D01*
X120010946Y-75244285D01*
X120332853Y-75726054D01*
X120662026Y-75946000D01*
X120332853Y-76165946D01*
X120010946Y-76647715D01*
X119897907Y-77216000D01*
X120010946Y-77784285D01*
X120332853Y-78266054D01*
X120662026Y-78486000D01*
X120332853Y-78705946D01*
X120010946Y-79187715D01*
X119897907Y-79756000D01*
X120010946Y-80324285D01*
X120332853Y-80806054D01*
X120662026Y-81026000D01*
X120332853Y-81245946D01*
X120010946Y-81727715D01*
X119897907Y-82296000D01*
X120010946Y-82864285D01*
X120332853Y-83346054D01*
X120662026Y-83566000D01*
X120332853Y-83785946D01*
X120010946Y-84267715D01*
X119897907Y-84836000D01*
X120010946Y-85404285D01*
X120332853Y-85886054D01*
X120662026Y-86106000D01*
X120332853Y-86325946D01*
X120010946Y-86807715D01*
X119897907Y-87376000D01*
X120010946Y-87944285D01*
X120332853Y-88426054D01*
X120662026Y-88646000D01*
X120332853Y-88865946D01*
X120010946Y-89347715D01*
X119897907Y-89916000D01*
X120010946Y-90484285D01*
X120332853Y-90966054D01*
X120662026Y-91186000D01*
X120332853Y-91405946D01*
X120010946Y-91887715D01*
X119897907Y-92456000D01*
X120010946Y-93024285D01*
X120332853Y-93506054D01*
X120662026Y-93726000D01*
X120332853Y-93945946D01*
X120010946Y-94427715D01*
X119897907Y-94996000D01*
X120010946Y-95564285D01*
X120332853Y-96046054D01*
X120662026Y-96266000D01*
X120332853Y-96485946D01*
X120010946Y-96967715D01*
X119897907Y-97536000D01*
X120010946Y-98104285D01*
X120332853Y-98586054D01*
X120662026Y-98806000D01*
X120332853Y-99025946D01*
X120010946Y-99507715D01*
X119897907Y-100076000D01*
X120010946Y-100644285D01*
X120332853Y-101126054D01*
X120662026Y-101346000D01*
X120332853Y-101565946D01*
X120010946Y-102047715D01*
X119897907Y-102616000D01*
X120010946Y-103184285D01*
X120332853Y-103666054D01*
X120662026Y-103886000D01*
X120332853Y-104105946D01*
X120010946Y-104587715D01*
X119897907Y-105156000D01*
X120010946Y-105724285D01*
X120332853Y-106206054D01*
X120662026Y-106426000D01*
X120332853Y-106645946D01*
X120010946Y-107127715D01*
X119897907Y-107696000D01*
X120010946Y-108264285D01*
X120332853Y-108746054D01*
X120662026Y-108966000D01*
X120332853Y-109185946D01*
X120010946Y-109667715D01*
X119897907Y-110236000D01*
X120010946Y-110804285D01*
X120332853Y-111286054D01*
X120662026Y-111506000D01*
X120332853Y-111725946D01*
X120010946Y-112207715D01*
X119897907Y-112776000D01*
X120010946Y-113344285D01*
X120332853Y-113826054D01*
X120662026Y-114046000D01*
X120332853Y-114265946D01*
X120010946Y-114747715D01*
X119897907Y-115316000D01*
X120010946Y-115884285D01*
X120332853Y-116366054D01*
X120662026Y-116586000D01*
X120332853Y-116805946D01*
X120010946Y-117287715D01*
X119897907Y-117856000D01*
X120010946Y-118424285D01*
X120332853Y-118906054D01*
X120662026Y-119126000D01*
X120332853Y-119345946D01*
X120010946Y-119827715D01*
X119897907Y-120396000D01*
X120010946Y-120964285D01*
X120332853Y-121446054D01*
X120662026Y-121666000D01*
X120332853Y-121885946D01*
X120010946Y-122367715D01*
X119897907Y-122936000D01*
X120010946Y-123504285D01*
X120332853Y-123986054D01*
X120662026Y-124206000D01*
X120332853Y-124425946D01*
X120010946Y-124907715D01*
X119897907Y-125476000D01*
X120010946Y-126044285D01*
X120332853Y-126526054D01*
X120662026Y-126746000D01*
X120332853Y-126965946D01*
X120010946Y-127447715D01*
X119897907Y-128016000D01*
X120010946Y-128584285D01*
X120332853Y-129066054D01*
X120662026Y-129286000D01*
X120332853Y-129505946D01*
X120010946Y-129987715D01*
X119897907Y-130556000D01*
X120010946Y-131124285D01*
X120332853Y-131606054D01*
X120662026Y-131826000D01*
X120332853Y-132045946D01*
X120010946Y-132527715D01*
X119897907Y-133096000D01*
X120010946Y-133664285D01*
X120332853Y-134146054D01*
X120662026Y-134366000D01*
X120332853Y-134585946D01*
X120010946Y-135067715D01*
X119897907Y-135636000D01*
X120010946Y-136204285D01*
X120332853Y-136686054D01*
X120814622Y-137007961D01*
X121382907Y-137121000D01*
X121441093Y-137121000D01*
X122009378Y-137007961D01*
X122491147Y-136686054D01*
X122601432Y-136521000D01*
X135462568Y-136521000D01*
X135572853Y-136686054D01*
X136054622Y-137007961D01*
X136622907Y-137121000D01*
X136681093Y-137121000D01*
X137249378Y-137007961D01*
X137341000Y-136946741D01*
X137341000Y-137810133D01*
X134537566Y-140613567D01*
X134356561Y-140884460D01*
X134293000Y-141204001D01*
X134293000Y-146812000D01*
X134356561Y-147131541D01*
X134486803Y-147326462D01*
X134537566Y-147402434D01*
X135212632Y-148077500D01*
X135167000Y-148306907D01*
X135167000Y-148365093D01*
X135280039Y-148933378D01*
X135601946Y-149415147D01*
X136083715Y-149737054D01*
X136652000Y-149850093D01*
X137220285Y-149737054D01*
X137702054Y-149415147D01*
X137922000Y-149085974D01*
X138141946Y-149415147D01*
X138623715Y-149737054D01*
X139192000Y-149850093D01*
X139760285Y-149737054D01*
X140242054Y-149415147D01*
X140462000Y-149085974D01*
X140681946Y-149415147D01*
X141163715Y-149737054D01*
X141732000Y-149850093D01*
X142300285Y-149737054D01*
X142782054Y-149415147D01*
X143002000Y-149085974D01*
X143221946Y-149415147D01*
X143703715Y-149737054D01*
X144272000Y-149850093D01*
X144840285Y-149737054D01*
X145322054Y-149415147D01*
X145542000Y-149085974D01*
X145761946Y-149415147D01*
X146243715Y-149737054D01*
X146812000Y-149850093D01*
X147380285Y-149737054D01*
X147862054Y-149415147D01*
X148082000Y-149085974D01*
X148301946Y-149415147D01*
X148783715Y-149737054D01*
X149352000Y-149850093D01*
X149920285Y-149737054D01*
X150402054Y-149415147D01*
X150622000Y-149085974D01*
X150841946Y-149415147D01*
X151323715Y-149737054D01*
X151892000Y-149850093D01*
X152460285Y-149737054D01*
X152942054Y-149415147D01*
X153162000Y-149085974D01*
X153381946Y-149415147D01*
X153863715Y-149737054D01*
X154432000Y-149850093D01*
X155000285Y-149737054D01*
X155482054Y-149415147D01*
X155702000Y-149085974D01*
X155921946Y-149415147D01*
X156403715Y-149737054D01*
X156972000Y-149850093D01*
X157540285Y-149737054D01*
X158022054Y-149415147D01*
X158242000Y-149085974D01*
X158461946Y-149415147D01*
X158943715Y-149737054D01*
X159512000Y-149850093D01*
X160080285Y-149737054D01*
X160562054Y-149415147D01*
X160883961Y-148933378D01*
X160997000Y-148365093D01*
X160997000Y-148306907D01*
X160951368Y-148077500D01*
X161352435Y-147676433D01*
X161533440Y-147405540D01*
X161597001Y-147085999D01*
X161597001Y-140569001D01*
X161533440Y-140249460D01*
X161352435Y-139978567D01*
X158823000Y-137449132D01*
X158823000Y-136881519D01*
X159155108Y-137037486D01*
X159385000Y-136916819D01*
X159385000Y-135723000D01*
X159639000Y-135723000D01*
X159639000Y-136916819D01*
X159868892Y-137037486D01*
X160393358Y-136791183D01*
X160783645Y-136362924D01*
X160936908Y-135992890D01*
X173310524Y-135992890D01*
X173480355Y-136402924D01*
X173870642Y-136831183D01*
X174395108Y-137077486D01*
X174625000Y-136956819D01*
X174625000Y-135763000D01*
X174879000Y-135763000D01*
X174879000Y-136956819D01*
X175108892Y-137077486D01*
X175633358Y-136831183D01*
X176023645Y-136402924D01*
X176193476Y-135992890D01*
X176072155Y-135763000D01*
X174879000Y-135763000D01*
X174625000Y-135763000D01*
X173431845Y-135763000D01*
X173310524Y-135992890D01*
X160936908Y-135992890D01*
X160953476Y-135952890D01*
X160832155Y-135723000D01*
X159639000Y-135723000D01*
X159385000Y-135723000D01*
X159365000Y-135723000D01*
X159365000Y-135469000D01*
X159385000Y-135469000D01*
X159385000Y-135449000D01*
X159639000Y-135449000D01*
X159639000Y-135469000D01*
X160832155Y-135469000D01*
X160953476Y-135239110D01*
X160783645Y-134829076D01*
X160393358Y-134400817D01*
X160285602Y-134350212D01*
X160591147Y-134146054D01*
X160701432Y-133981000D01*
X173562568Y-133981000D01*
X173672853Y-134146054D01*
X174013553Y-134373702D01*
X173870642Y-134440817D01*
X173480355Y-134869076D01*
X173310524Y-135279110D01*
X173431845Y-135509000D01*
X174625000Y-135509000D01*
X174625000Y-135489000D01*
X174879000Y-135489000D01*
X174879000Y-135509000D01*
X176072155Y-135509000D01*
X176193476Y-135279110D01*
X176023645Y-134869076D01*
X175633358Y-134440817D01*
X175490447Y-134373702D01*
X175831147Y-134146054D01*
X176153054Y-133664285D01*
X176266093Y-133096000D01*
X176153054Y-132527715D01*
X175831147Y-132045946D01*
X175501974Y-131826000D01*
X175831147Y-131606054D01*
X176153054Y-131124285D01*
X176266093Y-130556000D01*
X176153054Y-129987715D01*
X175831147Y-129505946D01*
X175501974Y-129286000D01*
X175831147Y-129066054D01*
X176153054Y-128584285D01*
X176266093Y-128016000D01*
X176153054Y-127447715D01*
X175831147Y-126965946D01*
X175501974Y-126746000D01*
X175831147Y-126526054D01*
X176153054Y-126044285D01*
X176266093Y-125476000D01*
X176153054Y-124907715D01*
X175831147Y-124425946D01*
X175501974Y-124206000D01*
X175831147Y-123986054D01*
X176153054Y-123504285D01*
X176266093Y-122936000D01*
X176153054Y-122367715D01*
X175831147Y-121885946D01*
X175501974Y-121666000D01*
X175831147Y-121446054D01*
X176153054Y-120964285D01*
X176266093Y-120396000D01*
X176153054Y-119827715D01*
X175831147Y-119345946D01*
X175501974Y-119126000D01*
X175831147Y-118906054D01*
X176153054Y-118424285D01*
X176266093Y-117856000D01*
X176153054Y-117287715D01*
X175831147Y-116805946D01*
X175501974Y-116586000D01*
X175831147Y-116366054D01*
X176153054Y-115884285D01*
X176266093Y-115316000D01*
X176153054Y-114747715D01*
X175831147Y-114265946D01*
X175501974Y-114046000D01*
X175831147Y-113826054D01*
X176153054Y-113344285D01*
X176266093Y-112776000D01*
X176153054Y-112207715D01*
X175831147Y-111725946D01*
X175501974Y-111506000D01*
X175831147Y-111286054D01*
X176153054Y-110804285D01*
X176266093Y-110236000D01*
X176153054Y-109667715D01*
X175831147Y-109185946D01*
X175501974Y-108966000D01*
X175831147Y-108746054D01*
X176153054Y-108264285D01*
X176266093Y-107696000D01*
X176153054Y-107127715D01*
X175831147Y-106645946D01*
X175501974Y-106426000D01*
X175831147Y-106206054D01*
X176153054Y-105724285D01*
X176266093Y-105156000D01*
X176153054Y-104587715D01*
X175831147Y-104105946D01*
X175501974Y-103886000D01*
X175831147Y-103666054D01*
X176153054Y-103184285D01*
X176266093Y-102616000D01*
X176153054Y-102047715D01*
X175831147Y-101565946D01*
X175501974Y-101346000D01*
X175831147Y-101126054D01*
X176153054Y-100644285D01*
X176266093Y-100076000D01*
X176153054Y-99507715D01*
X175831147Y-99025946D01*
X175501974Y-98806000D01*
X175831147Y-98586054D01*
X176153054Y-98104285D01*
X176266093Y-97536000D01*
X176153054Y-96967715D01*
X175831147Y-96485946D01*
X175501974Y-96266000D01*
X175831147Y-96046054D01*
X176153054Y-95564285D01*
X176266093Y-94996000D01*
X176153054Y-94427715D01*
X175831147Y-93945946D01*
X175501974Y-93726000D01*
X175831147Y-93506054D01*
X176153054Y-93024285D01*
X176266093Y-92456000D01*
X176153054Y-91887715D01*
X175831147Y-91405946D01*
X175501974Y-91186000D01*
X175831147Y-90966054D01*
X176153054Y-90484285D01*
X176266093Y-89916000D01*
X176153054Y-89347715D01*
X175831147Y-88865946D01*
X175501974Y-88646000D01*
X175831147Y-88426054D01*
X176153054Y-87944285D01*
X176266093Y-87376000D01*
X176153054Y-86807715D01*
X175831147Y-86325946D01*
X175501974Y-86106000D01*
X175831147Y-85886054D01*
X176153054Y-85404285D01*
X176266093Y-84836000D01*
X176153054Y-84267715D01*
X175831147Y-83785946D01*
X175501974Y-83566000D01*
X175831147Y-83346054D01*
X176153054Y-82864285D01*
X176266093Y-82296000D01*
X176153054Y-81727715D01*
X175831147Y-81245946D01*
X175501974Y-81026000D01*
X175831147Y-80806054D01*
X176153054Y-80324285D01*
X176266093Y-79756000D01*
X176153054Y-79187715D01*
X175831147Y-78705946D01*
X175501974Y-78486000D01*
X175831147Y-78266054D01*
X176153054Y-77784285D01*
X176266093Y-77216000D01*
X176153054Y-76647715D01*
X175831147Y-76165946D01*
X175501974Y-75946000D01*
X175831147Y-75726054D01*
X176153054Y-75244285D01*
X176266093Y-74676000D01*
X176153054Y-74107715D01*
X175831147Y-73625946D01*
X175501974Y-73406000D01*
X175831147Y-73186054D01*
X176153054Y-72704285D01*
X176266093Y-72136000D01*
X176153054Y-71567715D01*
X175831147Y-71085946D01*
X175789548Y-71058150D01*
X175837317Y-71049162D01*
X176053441Y-70910090D01*
X176198431Y-70697890D01*
X176249440Y-70446000D01*
X176249440Y-68746000D01*
X176205162Y-68510683D01*
X176066090Y-68294559D01*
X175853890Y-68149569D01*
X175602000Y-68098560D01*
X173902000Y-68098560D01*
X173666683Y-68142838D01*
X173450559Y-68281910D01*
X173305569Y-68494110D01*
X173261648Y-68711000D01*
X169581779Y-68711000D01*
X169452054Y-68516853D01*
X168970285Y-68194946D01*
X168402000Y-68081907D01*
X167833715Y-68194946D01*
X167351946Y-68516853D01*
X167324150Y-68558452D01*
X167315162Y-68510683D01*
X167176090Y-68294559D01*
X166963890Y-68149569D01*
X166712000Y-68098560D01*
X165012000Y-68098560D01*
X164776683Y-68142838D01*
X164560559Y-68281910D01*
X164415569Y-68494110D01*
X164371648Y-68711000D01*
X160726820Y-68711000D01*
X160354283Y-68337812D01*
X159808681Y-68111258D01*
X159217911Y-68110743D01*
X158671914Y-68336344D01*
X158253812Y-68753717D01*
X158027258Y-69299319D01*
X158026743Y-69890089D01*
X158252344Y-70436086D01*
X158669717Y-70854188D01*
X158737550Y-70882355D01*
X158432853Y-71085946D01*
X158110946Y-71567715D01*
X157997907Y-72136000D01*
X158110946Y-72704285D01*
X158432853Y-73186054D01*
X158762026Y-73406000D01*
X158432853Y-73625946D01*
X158110946Y-74107715D01*
X157997907Y-74676000D01*
X158110946Y-75244285D01*
X158432853Y-75726054D01*
X158762026Y-75946000D01*
X158432853Y-76165946D01*
X158110946Y-76647715D01*
X157997907Y-77216000D01*
X158110946Y-77784285D01*
X158432853Y-78266054D01*
X158762026Y-78486000D01*
X158432853Y-78705946D01*
X158110946Y-79187715D01*
X157997907Y-79756000D01*
X158110946Y-80324285D01*
X158432853Y-80806054D01*
X158762026Y-81026000D01*
X158432853Y-81245946D01*
X158110946Y-81727715D01*
X157997907Y-82296000D01*
X158110946Y-82864285D01*
X158432853Y-83346054D01*
X158762026Y-83566000D01*
X158432853Y-83785946D01*
X158110946Y-84267715D01*
X157997907Y-84836000D01*
X158110946Y-85404285D01*
X158432853Y-85886054D01*
X158762026Y-86106000D01*
X158432853Y-86325946D01*
X158110946Y-86807715D01*
X157997907Y-87376000D01*
X158110946Y-87944285D01*
X158432853Y-88426054D01*
X158762026Y-88646000D01*
X158432853Y-88865946D01*
X158110946Y-89347715D01*
X157997907Y-89916000D01*
X158110946Y-90484285D01*
X158432853Y-90966054D01*
X158762026Y-91186000D01*
X158432853Y-91405946D01*
X158110946Y-91887715D01*
X157997907Y-92456000D01*
X158110946Y-93024285D01*
X158432853Y-93506054D01*
X158762026Y-93726000D01*
X158432853Y-93945946D01*
X158110946Y-94427715D01*
X157997907Y-94996000D01*
X158110946Y-95564285D01*
X158432853Y-96046054D01*
X158762026Y-96266000D01*
X158432853Y-96485946D01*
X158110946Y-96967715D01*
X157997907Y-97536000D01*
X158110946Y-98104285D01*
X158432853Y-98586054D01*
X158762026Y-98806000D01*
X158432853Y-99025946D01*
X158110946Y-99507715D01*
X157997907Y-100076000D01*
X158110946Y-100644285D01*
X158432853Y-101126054D01*
X158762026Y-101346000D01*
X158432853Y-101565946D01*
X158110946Y-102047715D01*
X157997907Y-102616000D01*
X158110946Y-103184285D01*
X158432853Y-103666054D01*
X158762026Y-103886000D01*
X158432853Y-104105946D01*
X158110946Y-104587715D01*
X157997907Y-105156000D01*
X158110946Y-105724285D01*
X158432853Y-106206054D01*
X158762026Y-106426000D01*
X158432853Y-106645946D01*
X158110946Y-107127715D01*
X157997907Y-107696000D01*
X158110946Y-108264285D01*
X158432853Y-108746054D01*
X158762026Y-108966000D01*
X158432853Y-109185946D01*
X158110946Y-109667715D01*
X157997907Y-110236000D01*
X158110946Y-110804285D01*
X158432853Y-111286054D01*
X158762026Y-111506000D01*
X158432853Y-111725946D01*
X158110946Y-112207715D01*
X157997907Y-112776000D01*
X158110946Y-113344285D01*
X158432853Y-113826054D01*
X158762026Y-114046000D01*
X158432853Y-114265946D01*
X158110946Y-114747715D01*
X157997907Y-115316000D01*
X158110946Y-115884285D01*
X158432853Y-116366054D01*
X158762026Y-116586000D01*
X158432853Y-116805946D01*
X158110946Y-117287715D01*
X157997907Y-117856000D01*
X158110946Y-118424285D01*
X158432853Y-118906054D01*
X158762026Y-119126000D01*
X158432853Y-119345946D01*
X158110946Y-119827715D01*
X157997907Y-120396000D01*
X158110946Y-120964285D01*
X158432853Y-121446054D01*
X158762026Y-121666000D01*
X158432853Y-121885946D01*
X158110946Y-122367715D01*
X157997907Y-122936000D01*
X158110946Y-123504285D01*
X158432853Y-123986054D01*
X158762026Y-124206000D01*
X158432853Y-124425946D01*
X158110946Y-124907715D01*
X157997907Y-125476000D01*
X158110946Y-126044285D01*
X158432853Y-126526054D01*
X158762026Y-126746000D01*
X158432853Y-126965946D01*
X158357936Y-127078068D01*
X155149434Y-123869566D01*
X155076750Y-123821000D01*
X154878541Y-123688561D01*
X154559000Y-123625000D01*
X143708000Y-123625000D01*
X143388459Y-123688561D01*
X143190250Y-123821000D01*
X143117566Y-123869566D01*
X140410500Y-126576632D01*
X140181093Y-126531000D01*
X140122907Y-126531000D01*
X139554622Y-126644039D01*
X139072853Y-126965946D01*
X138750946Y-127447715D01*
X138637907Y-128016000D01*
X138750946Y-128584285D01*
X139072853Y-129066054D01*
X139402026Y-129286000D01*
X139072853Y-129505946D01*
X138750946Y-129987715D01*
X138637907Y-130556000D01*
X138693193Y-130833939D01*
X137585566Y-131941566D01*
X137582283Y-131946479D01*
X137401974Y-131826000D01*
X137731147Y-131606054D01*
X138053054Y-131124285D01*
X138166093Y-130556000D01*
X138053054Y-129987715D01*
X137731147Y-129505946D01*
X137401974Y-129286000D01*
X137731147Y-129066054D01*
X138053054Y-128584285D01*
X138166093Y-128016000D01*
X138053054Y-127447715D01*
X137731147Y-126965946D01*
X137401974Y-126746000D01*
X137731147Y-126526054D01*
X138053054Y-126044285D01*
X138166093Y-125476000D01*
X138053054Y-124907715D01*
X137731147Y-124425946D01*
X137401974Y-124206000D01*
X137731147Y-123986054D01*
X138053054Y-123504285D01*
X138166093Y-122936000D01*
X138053054Y-122367715D01*
X137731147Y-121885946D01*
X137401974Y-121666000D01*
X137731147Y-121446054D01*
X138053054Y-120964285D01*
X138166093Y-120396000D01*
X138053054Y-119827715D01*
X137731147Y-119345946D01*
X137401974Y-119126000D01*
X137731147Y-118906054D01*
X138053054Y-118424285D01*
X138166093Y-117856000D01*
X138053054Y-117287715D01*
X137731147Y-116805946D01*
X137401974Y-116586000D01*
X137731147Y-116366054D01*
X138041885Y-115901000D01*
X138923189Y-115901000D01*
X138923189Y-120671000D01*
X157240811Y-120671000D01*
X157240811Y-115901000D01*
X138923189Y-115901000D01*
X138041885Y-115901000D01*
X138053054Y-115884285D01*
X138166093Y-115316000D01*
X138053054Y-114747715D01*
X137731147Y-114265946D01*
X137401974Y-114046000D01*
X137731147Y-113826054D01*
X138053054Y-113344285D01*
X138166093Y-112776000D01*
X138053054Y-112207715D01*
X137731147Y-111725946D01*
X137401974Y-111506000D01*
X137731147Y-111286054D01*
X138053054Y-110804285D01*
X138166093Y-110236000D01*
X138053054Y-109667715D01*
X137731147Y-109185946D01*
X137401974Y-108966000D01*
X137731147Y-108746054D01*
X138053054Y-108264285D01*
X138166093Y-107696000D01*
X138053054Y-107127715D01*
X137733188Y-106649000D01*
X140312095Y-106649000D01*
X140312095Y-111419000D01*
X156105905Y-111419000D01*
X156105905Y-106649000D01*
X140312095Y-106649000D01*
X137733188Y-106649000D01*
X137731147Y-106645946D01*
X137401974Y-106426000D01*
X137731147Y-106206054D01*
X138053054Y-105724285D01*
X138166093Y-105156000D01*
X138053054Y-104587715D01*
X137731147Y-104105946D01*
X137401974Y-103886000D01*
X137731147Y-103666054D01*
X138053054Y-103184285D01*
X138166093Y-102616000D01*
X138053054Y-102047715D01*
X137731147Y-101565946D01*
X137401974Y-101346000D01*
X137731147Y-101126054D01*
X138053054Y-100644285D01*
X138166093Y-100076000D01*
X138053054Y-99507715D01*
X137731147Y-99025946D01*
X137401974Y-98806000D01*
X137731147Y-98586054D01*
X138053054Y-98104285D01*
X138166093Y-97536000D01*
X138053054Y-96967715D01*
X137860790Y-96679970D01*
X146747635Y-96679970D01*
X146907418Y-96998739D01*
X147698187Y-97308723D01*
X148547387Y-97292497D01*
X149256582Y-96998739D01*
X149416365Y-96679970D01*
X148082000Y-95345605D01*
X146747635Y-96679970D01*
X137860790Y-96679970D01*
X137731147Y-96485946D01*
X137401974Y-96266000D01*
X137731147Y-96046054D01*
X138053054Y-95564285D01*
X138166093Y-94996000D01*
X138123563Y-94782187D01*
X145939277Y-94782187D01*
X145955503Y-95631387D01*
X146249261Y-96340582D01*
X146568030Y-96500365D01*
X147902395Y-95166000D01*
X148261605Y-95166000D01*
X149595970Y-96500365D01*
X149914739Y-96340582D01*
X150224723Y-95549813D01*
X150208497Y-94700613D01*
X149914739Y-93991418D01*
X149595970Y-93831635D01*
X148261605Y-95166000D01*
X147902395Y-95166000D01*
X146568030Y-93831635D01*
X146249261Y-93991418D01*
X145939277Y-94782187D01*
X138123563Y-94782187D01*
X138053054Y-94427715D01*
X137731147Y-93945946D01*
X137401974Y-93726000D01*
X137512678Y-93652030D01*
X146747635Y-93652030D01*
X148082000Y-94986395D01*
X149416365Y-93652030D01*
X149256582Y-93333261D01*
X148465813Y-93023277D01*
X147616613Y-93039503D01*
X146907418Y-93333261D01*
X146747635Y-93652030D01*
X137512678Y-93652030D01*
X137731147Y-93506054D01*
X138053054Y-93024285D01*
X138166093Y-92456000D01*
X138053054Y-91887715D01*
X137731147Y-91405946D01*
X137401974Y-91186000D01*
X137731147Y-90966054D01*
X138053054Y-90484285D01*
X138166093Y-89916000D01*
X138053054Y-89347715D01*
X137731147Y-88865946D01*
X137401974Y-88646000D01*
X137731147Y-88426054D01*
X138053054Y-87944285D01*
X138166093Y-87376000D01*
X138053054Y-86807715D01*
X137731147Y-86325946D01*
X137401974Y-86106000D01*
X137731147Y-85886054D01*
X138053054Y-85404285D01*
X138166093Y-84836000D01*
X138053054Y-84267715D01*
X137731147Y-83785946D01*
X137401974Y-83566000D01*
X137731147Y-83346054D01*
X138053054Y-82864285D01*
X138166093Y-82296000D01*
X138053054Y-81727715D01*
X137731147Y-81245946D01*
X137401974Y-81026000D01*
X137731147Y-80806054D01*
X138053054Y-80324285D01*
X138166093Y-79756000D01*
X138053054Y-79187715D01*
X137731147Y-78705946D01*
X137401974Y-78486000D01*
X137731147Y-78266054D01*
X138053054Y-77784285D01*
X138166093Y-77216000D01*
X138053054Y-76647715D01*
X137731147Y-76165946D01*
X137401974Y-75946000D01*
X137731147Y-75726054D01*
X137841432Y-75561000D01*
X145934560Y-75561000D01*
X145934560Y-76176000D01*
X145978838Y-76411317D01*
X146117910Y-76627441D01*
X146330110Y-76772431D01*
X146582000Y-76823440D01*
X149582000Y-76823440D01*
X149817317Y-76779162D01*
X150033441Y-76640090D01*
X150178431Y-76427890D01*
X150229440Y-76176000D01*
X150229440Y-73176000D01*
X150185162Y-72940683D01*
X150046090Y-72724559D01*
X149833890Y-72579569D01*
X149582000Y-72528560D01*
X146582000Y-72528560D01*
X146346683Y-72572838D01*
X146130559Y-72711910D01*
X145985569Y-72924110D01*
X145934560Y-73176000D01*
X145934560Y-73791000D01*
X137841432Y-73791000D01*
X137731147Y-73625946D01*
X137401974Y-73406000D01*
X137731147Y-73186054D01*
X138053054Y-72704285D01*
X138166093Y-72136000D01*
X138053054Y-71567715D01*
X137731147Y-71085946D01*
X137687223Y-71056597D01*
X137861698Y-70984327D01*
X138040327Y-70805699D01*
X138137000Y-70572310D01*
X138137000Y-69881750D01*
X137978250Y-69723000D01*
X136779000Y-69723000D01*
X136779000Y-69743000D01*
X136525000Y-69743000D01*
X136525000Y-69723000D01*
X135325750Y-69723000D01*
X135167000Y-69881750D01*
X135167000Y-70572310D01*
X135263673Y-70805699D01*
X135442302Y-70984327D01*
X135616777Y-71056597D01*
X135572853Y-71085946D01*
X135462568Y-71251000D01*
X122601432Y-71251000D01*
X122491147Y-71085946D01*
X122447223Y-71056597D01*
X122621698Y-70984327D01*
X122800327Y-70805699D01*
X122897000Y-70572310D01*
X122897000Y-69881750D01*
X122738250Y-69723000D01*
X121539000Y-69723000D01*
X121539000Y-69743000D01*
X121285000Y-69743000D01*
X121285000Y-69723000D01*
X120085750Y-69723000D01*
X119927000Y-69881750D01*
X119927000Y-70572310D01*
X120023673Y-70805699D01*
X120202302Y-70984327D01*
X120376777Y-71056597D01*
X120332853Y-71085946D01*
X120010946Y-71567715D01*
X119897907Y-72136000D01*
X117042000Y-72136000D01*
X117042000Y-68619690D01*
X119927000Y-68619690D01*
X119927000Y-69310250D01*
X120085750Y-69469000D01*
X121285000Y-69469000D01*
X121285000Y-68269750D01*
X121539000Y-68269750D01*
X121539000Y-69469000D01*
X122738250Y-69469000D01*
X122897000Y-69310250D01*
X122897000Y-68619690D01*
X135167000Y-68619690D01*
X135167000Y-69310250D01*
X135325750Y-69469000D01*
X136525000Y-69469000D01*
X136525000Y-68269750D01*
X136779000Y-68269750D01*
X136779000Y-69469000D01*
X137978250Y-69469000D01*
X138137000Y-69310250D01*
X138137000Y-68619690D01*
X138040327Y-68386301D01*
X137861698Y-68207673D01*
X137628309Y-68111000D01*
X136937750Y-68111000D01*
X136779000Y-68269750D01*
X136525000Y-68269750D01*
X136366250Y-68111000D01*
X135675691Y-68111000D01*
X135442302Y-68207673D01*
X135263673Y-68386301D01*
X135167000Y-68619690D01*
X122897000Y-68619690D01*
X122800327Y-68386301D01*
X122621698Y-68207673D01*
X122388309Y-68111000D01*
X121697750Y-68111000D01*
X121539000Y-68269750D01*
X121285000Y-68269750D01*
X121126250Y-68111000D01*
X120435691Y-68111000D01*
X120202302Y-68207673D01*
X120023673Y-68386301D01*
X119927000Y-68619690D01*
X117042000Y-68619690D01*
X117042000Y-59878619D01*
X117652613Y-59878619D01*
X117992155Y-60700372D01*
X118620321Y-61329636D01*
X119441481Y-61670611D01*
X120330619Y-61671387D01*
X121152372Y-61331845D01*
X121781636Y-60703679D01*
X122122611Y-59882519D01*
X122122759Y-59712661D01*
X166242758Y-59712661D01*
X166454990Y-60226303D01*
X166847630Y-60619629D01*
X167360900Y-60832757D01*
X167916661Y-60833242D01*
X168430303Y-60621010D01*
X168823629Y-60228370D01*
X168916123Y-60005619D01*
X173786613Y-60005619D01*
X174126155Y-60827372D01*
X174754321Y-61456636D01*
X175575481Y-61797611D01*
X176464619Y-61798387D01*
X177286372Y-61458845D01*
X177915636Y-60830679D01*
X178256611Y-60009519D01*
X178257387Y-59120381D01*
X177917845Y-58298628D01*
X177289679Y-57669364D01*
X176468519Y-57328389D01*
X175579381Y-57327613D01*
X174757628Y-57667155D01*
X174128364Y-58295321D01*
X173787389Y-59116481D01*
X173786613Y-60005619D01*
X168916123Y-60005619D01*
X169036757Y-59715100D01*
X169037242Y-59159339D01*
X168825010Y-58645697D01*
X168432370Y-58252371D01*
X167919100Y-58039243D01*
X167363339Y-58038758D01*
X166849697Y-58250990D01*
X166456371Y-58643630D01*
X166243243Y-59156900D01*
X166242758Y-59712661D01*
X122122759Y-59712661D01*
X122123387Y-58993381D01*
X121783845Y-58171628D01*
X121155679Y-57542364D01*
X120334519Y-57201389D01*
X119445381Y-57200613D01*
X118623628Y-57540155D01*
X117994364Y-58168321D01*
X117653389Y-58989481D01*
X117652613Y-59878619D01*
X117042000Y-59878619D01*
X117042000Y-56590000D01*
X179122000Y-56590000D01*
X179122000Y-152706000D01*
X179122000Y-152706000D01*
G37*
X179122000Y-152706000D02*
X117042000Y-152706000D01*
X117042000Y-150048619D01*
X117906613Y-150048619D01*
X118246155Y-150870372D01*
X118874321Y-151499636D01*
X119695481Y-151840611D01*
X120584619Y-151841387D01*
X121406372Y-151501845D01*
X122035636Y-150873679D01*
X122376611Y-150052519D01*
X122376759Y-149882661D01*
X125094758Y-149882661D01*
X125306990Y-150396303D01*
X125699630Y-150789629D01*
X126212900Y-151002757D01*
X126768661Y-151003242D01*
X127282303Y-150791010D01*
X127675629Y-150398370D01*
X127820858Y-150048619D01*
X173786613Y-150048619D01*
X174126155Y-150870372D01*
X174754321Y-151499636D01*
X175575481Y-151840611D01*
X176464619Y-151841387D01*
X177286372Y-151501845D01*
X177915636Y-150873679D01*
X178256611Y-150052519D01*
X178257387Y-149163381D01*
X177917845Y-148341628D01*
X177289679Y-147712364D01*
X176468519Y-147371389D01*
X175579381Y-147370613D01*
X174757628Y-147710155D01*
X174128364Y-148338321D01*
X173787389Y-149159481D01*
X173786613Y-150048619D01*
X127820858Y-150048619D01*
X127888757Y-149885100D01*
X127889242Y-149329339D01*
X127677010Y-148815697D01*
X127284370Y-148422371D01*
X126771100Y-148209243D01*
X126215339Y-148208758D01*
X125701697Y-148420990D01*
X125308371Y-148813630D01*
X125095243Y-149326900D01*
X125094758Y-149882661D01*
X122376759Y-149882661D01*
X122377387Y-149163381D01*
X122037845Y-148341628D01*
X121409679Y-147712364D01*
X120588519Y-147371389D01*
X119699381Y-147370613D01*
X118877628Y-147710155D01*
X118248364Y-148338321D01*
X117907389Y-149159481D01*
X117906613Y-150048619D01*
X117042000Y-150048619D01*
X117042000Y-72136000D01*
X119897907Y-72136000D01*
X120010946Y-72704285D01*
X120332853Y-73186054D01*
X120662026Y-73406000D01*
X120332853Y-73625946D01*
X120010946Y-74107715D01*
X119897907Y-74676000D01*
X120010946Y-75244285D01*
X120332853Y-75726054D01*
X120662026Y-75946000D01*
X120332853Y-76165946D01*
X120010946Y-76647715D01*
X119897907Y-77216000D01*
X120010946Y-77784285D01*
X120332853Y-78266054D01*
X120662026Y-78486000D01*
X120332853Y-78705946D01*
X120010946Y-79187715D01*
X119897907Y-79756000D01*
X120010946Y-80324285D01*
X120332853Y-80806054D01*
X120662026Y-81026000D01*
X120332853Y-81245946D01*
X120010946Y-81727715D01*
X119897907Y-82296000D01*
X120010946Y-82864285D01*
X120332853Y-83346054D01*
X120662026Y-83566000D01*
X120332853Y-83785946D01*
X120010946Y-84267715D01*
X119897907Y-84836000D01*
X120010946Y-85404285D01*
X120332853Y-85886054D01*
X120662026Y-86106000D01*
X120332853Y-86325946D01*
X120010946Y-86807715D01*
X119897907Y-87376000D01*
X120010946Y-87944285D01*
X120332853Y-88426054D01*
X120662026Y-88646000D01*
X120332853Y-88865946D01*
X120010946Y-89347715D01*
X119897907Y-89916000D01*
X120010946Y-90484285D01*
X120332853Y-90966054D01*
X120662026Y-91186000D01*
X120332853Y-91405946D01*
X120010946Y-91887715D01*
X119897907Y-92456000D01*
X120010946Y-93024285D01*
X120332853Y-93506054D01*
X120662026Y-93726000D01*
X120332853Y-93945946D01*
X120010946Y-94427715D01*
X119897907Y-94996000D01*
X120010946Y-95564285D01*
X120332853Y-96046054D01*
X120662026Y-96266000D01*
X120332853Y-96485946D01*
X120010946Y-96967715D01*
X119897907Y-97536000D01*
X120010946Y-98104285D01*
X120332853Y-98586054D01*
X120662026Y-98806000D01*
X120332853Y-99025946D01*
X120010946Y-99507715D01*
X119897907Y-100076000D01*
X120010946Y-100644285D01*
X120332853Y-101126054D01*
X120662026Y-101346000D01*
X120332853Y-101565946D01*
X120010946Y-102047715D01*
X119897907Y-102616000D01*
X120010946Y-103184285D01*
X120332853Y-103666054D01*
X120662026Y-103886000D01*
X120332853Y-104105946D01*
X120010946Y-104587715D01*
X119897907Y-105156000D01*
X120010946Y-105724285D01*
X120332853Y-106206054D01*
X120662026Y-106426000D01*
X120332853Y-106645946D01*
X120010946Y-107127715D01*
X119897907Y-107696000D01*
X120010946Y-108264285D01*
X120332853Y-108746054D01*
X120662026Y-108966000D01*
X120332853Y-109185946D01*
X120010946Y-109667715D01*
X119897907Y-110236000D01*
X120010946Y-110804285D01*
X120332853Y-111286054D01*
X120662026Y-111506000D01*
X120332853Y-111725946D01*
X120010946Y-112207715D01*
X119897907Y-112776000D01*
X120010946Y-113344285D01*
X120332853Y-113826054D01*
X120662026Y-114046000D01*
X120332853Y-114265946D01*
X120010946Y-114747715D01*
X119897907Y-115316000D01*
X120010946Y-115884285D01*
X120332853Y-116366054D01*
X120662026Y-116586000D01*
X120332853Y-116805946D01*
X120010946Y-117287715D01*
X119897907Y-117856000D01*
X120010946Y-118424285D01*
X120332853Y-118906054D01*
X120662026Y-119126000D01*
X120332853Y-119345946D01*
X120010946Y-119827715D01*
X119897907Y-120396000D01*
X120010946Y-120964285D01*
X120332853Y-121446054D01*
X120662026Y-121666000D01*
X120332853Y-121885946D01*
X120010946Y-122367715D01*
X119897907Y-122936000D01*
X120010946Y-123504285D01*
X120332853Y-123986054D01*
X120662026Y-124206000D01*
X120332853Y-124425946D01*
X120010946Y-124907715D01*
X119897907Y-125476000D01*
X120010946Y-126044285D01*
X120332853Y-126526054D01*
X120662026Y-126746000D01*
X120332853Y-126965946D01*
X120010946Y-127447715D01*
X119897907Y-128016000D01*
X120010946Y-128584285D01*
X120332853Y-129066054D01*
X120662026Y-129286000D01*
X120332853Y-129505946D01*
X120010946Y-129987715D01*
X119897907Y-130556000D01*
X120010946Y-131124285D01*
X120332853Y-131606054D01*
X120662026Y-131826000D01*
X120332853Y-132045946D01*
X120010946Y-132527715D01*
X119897907Y-133096000D01*
X120010946Y-133664285D01*
X120332853Y-134146054D01*
X120662026Y-134366000D01*
X120332853Y-134585946D01*
X120010946Y-135067715D01*
X119897907Y-135636000D01*
X120010946Y-136204285D01*
X120332853Y-136686054D01*
X120814622Y-137007961D01*
X121382907Y-137121000D01*
X121441093Y-137121000D01*
X122009378Y-137007961D01*
X122491147Y-136686054D01*
X122601432Y-136521000D01*
X135462568Y-136521000D01*
X135572853Y-136686054D01*
X136054622Y-137007961D01*
X136622907Y-137121000D01*
X136681093Y-137121000D01*
X137249378Y-137007961D01*
X137341000Y-136946741D01*
X137341000Y-137810133D01*
X134537566Y-140613567D01*
X134356561Y-140884460D01*
X134293000Y-141204001D01*
X134293000Y-146812000D01*
X134356561Y-147131541D01*
X134486803Y-147326462D01*
X134537566Y-147402434D01*
X135212632Y-148077500D01*
X135167000Y-148306907D01*
X135167000Y-148365093D01*
X135280039Y-148933378D01*
X135601946Y-149415147D01*
X136083715Y-149737054D01*
X136652000Y-149850093D01*
X137220285Y-149737054D01*
X137702054Y-149415147D01*
X137922000Y-149085974D01*
X138141946Y-149415147D01*
X138623715Y-149737054D01*
X139192000Y-149850093D01*
X139760285Y-149737054D01*
X140242054Y-149415147D01*
X140462000Y-149085974D01*
X140681946Y-149415147D01*
X141163715Y-149737054D01*
X141732000Y-149850093D01*
X142300285Y-149737054D01*
X142782054Y-149415147D01*
X143002000Y-149085974D01*
X143221946Y-149415147D01*
X143703715Y-149737054D01*
X144272000Y-149850093D01*
X144840285Y-149737054D01*
X145322054Y-149415147D01*
X145542000Y-149085974D01*
X145761946Y-149415147D01*
X146243715Y-149737054D01*
X146812000Y-149850093D01*
X147380285Y-149737054D01*
X147862054Y-149415147D01*
X148082000Y-149085974D01*
X148301946Y-149415147D01*
X148783715Y-149737054D01*
X149352000Y-149850093D01*
X149920285Y-149737054D01*
X150402054Y-149415147D01*
X150622000Y-149085974D01*
X150841946Y-149415147D01*
X151323715Y-149737054D01*
X151892000Y-149850093D01*
X152460285Y-149737054D01*
X152942054Y-149415147D01*
X153162000Y-149085974D01*
X153381946Y-149415147D01*
X153863715Y-149737054D01*
X154432000Y-149850093D01*
X155000285Y-149737054D01*
X155482054Y-149415147D01*
X155702000Y-149085974D01*
X155921946Y-149415147D01*
X156403715Y-149737054D01*
X156972000Y-149850093D01*
X157540285Y-149737054D01*
X158022054Y-149415147D01*
X158242000Y-149085974D01*
X158461946Y-149415147D01*
X158943715Y-149737054D01*
X159512000Y-149850093D01*
X160080285Y-149737054D01*
X160562054Y-149415147D01*
X160883961Y-148933378D01*
X160997000Y-148365093D01*
X160997000Y-148306907D01*
X160951368Y-148077500D01*
X161352435Y-147676433D01*
X161533440Y-147405540D01*
X161597001Y-147085999D01*
X161597001Y-140569001D01*
X161533440Y-140249460D01*
X161352435Y-139978567D01*
X158823000Y-137449132D01*
X158823000Y-136881519D01*
X159155108Y-137037486D01*
X159385000Y-136916819D01*
X159385000Y-135723000D01*
X159639000Y-135723000D01*
X159639000Y-136916819D01*
X159868892Y-137037486D01*
X160393358Y-136791183D01*
X160783645Y-136362924D01*
X160936908Y-135992890D01*
X173310524Y-135992890D01*
X173480355Y-136402924D01*
X173870642Y-136831183D01*
X174395108Y-137077486D01*
X174625000Y-136956819D01*
X174625000Y-135763000D01*
X174879000Y-135763000D01*
X174879000Y-136956819D01*
X175108892Y-137077486D01*
X175633358Y-136831183D01*
X176023645Y-136402924D01*
X176193476Y-135992890D01*
X176072155Y-135763000D01*
X174879000Y-135763000D01*
X174625000Y-135763000D01*
X173431845Y-135763000D01*
X173310524Y-135992890D01*
X160936908Y-135992890D01*
X160953476Y-135952890D01*
X160832155Y-135723000D01*
X159639000Y-135723000D01*
X159385000Y-135723000D01*
X159365000Y-135723000D01*
X159365000Y-135469000D01*
X159385000Y-135469000D01*
X159385000Y-135449000D01*
X159639000Y-135449000D01*
X159639000Y-135469000D01*
X160832155Y-135469000D01*
X160953476Y-135239110D01*
X160783645Y-134829076D01*
X160393358Y-134400817D01*
X160285602Y-134350212D01*
X160591147Y-134146054D01*
X160701432Y-133981000D01*
X173562568Y-133981000D01*
X173672853Y-134146054D01*
X174013553Y-134373702D01*
X173870642Y-134440817D01*
X173480355Y-134869076D01*
X173310524Y-135279110D01*
X173431845Y-135509000D01*
X174625000Y-135509000D01*
X174625000Y-135489000D01*
X174879000Y-135489000D01*
X174879000Y-135509000D01*
X176072155Y-135509000D01*
X176193476Y-135279110D01*
X176023645Y-134869076D01*
X175633358Y-134440817D01*
X175490447Y-134373702D01*
X175831147Y-134146054D01*
X176153054Y-133664285D01*
X176266093Y-133096000D01*
X176153054Y-132527715D01*
X175831147Y-132045946D01*
X175501974Y-131826000D01*
X175831147Y-131606054D01*
X176153054Y-131124285D01*
X176266093Y-130556000D01*
X176153054Y-129987715D01*
X175831147Y-129505946D01*
X175501974Y-129286000D01*
X175831147Y-129066054D01*
X176153054Y-128584285D01*
X176266093Y-128016000D01*
X176153054Y-127447715D01*
X175831147Y-126965946D01*
X175501974Y-126746000D01*
X175831147Y-126526054D01*
X176153054Y-126044285D01*
X176266093Y-125476000D01*
X176153054Y-124907715D01*
X175831147Y-124425946D01*
X175501974Y-124206000D01*
X175831147Y-123986054D01*
X176153054Y-123504285D01*
X176266093Y-122936000D01*
X176153054Y-122367715D01*
X175831147Y-121885946D01*
X175501974Y-121666000D01*
X175831147Y-121446054D01*
X176153054Y-120964285D01*
X176266093Y-120396000D01*
X176153054Y-119827715D01*
X175831147Y-119345946D01*
X175501974Y-119126000D01*
X175831147Y-118906054D01*
X176153054Y-118424285D01*
X176266093Y-117856000D01*
X176153054Y-117287715D01*
X175831147Y-116805946D01*
X175501974Y-116586000D01*
X175831147Y-116366054D01*
X176153054Y-115884285D01*
X176266093Y-115316000D01*
X176153054Y-114747715D01*
X175831147Y-114265946D01*
X175501974Y-114046000D01*
X175831147Y-113826054D01*
X176153054Y-113344285D01*
X176266093Y-112776000D01*
X176153054Y-112207715D01*
X175831147Y-111725946D01*
X175501974Y-111506000D01*
X175831147Y-111286054D01*
X176153054Y-110804285D01*
X176266093Y-110236000D01*
X176153054Y-109667715D01*
X175831147Y-109185946D01*
X175501974Y-108966000D01*
X175831147Y-108746054D01*
X176153054Y-108264285D01*
X176266093Y-107696000D01*
X176153054Y-107127715D01*
X175831147Y-106645946D01*
X175501974Y-106426000D01*
X175831147Y-106206054D01*
X176153054Y-105724285D01*
X176266093Y-105156000D01*
X176153054Y-104587715D01*
X175831147Y-104105946D01*
X175501974Y-103886000D01*
X175831147Y-103666054D01*
X176153054Y-103184285D01*
X176266093Y-102616000D01*
X176153054Y-102047715D01*
X175831147Y-101565946D01*
X175501974Y-101346000D01*
X175831147Y-101126054D01*
X176153054Y-100644285D01*
X176266093Y-100076000D01*
X176153054Y-99507715D01*
X175831147Y-99025946D01*
X175501974Y-98806000D01*
X175831147Y-98586054D01*
X176153054Y-98104285D01*
X176266093Y-97536000D01*
X176153054Y-96967715D01*
X175831147Y-96485946D01*
X175501974Y-96266000D01*
X175831147Y-96046054D01*
X176153054Y-95564285D01*
X176266093Y-94996000D01*
X176153054Y-94427715D01*
X175831147Y-93945946D01*
X175501974Y-93726000D01*
X175831147Y-93506054D01*
X176153054Y-93024285D01*
X176266093Y-92456000D01*
X176153054Y-91887715D01*
X175831147Y-91405946D01*
X175501974Y-91186000D01*
X175831147Y-90966054D01*
X176153054Y-90484285D01*
X176266093Y-89916000D01*
X176153054Y-89347715D01*
X175831147Y-88865946D01*
X175501974Y-88646000D01*
X175831147Y-88426054D01*
X176153054Y-87944285D01*
X176266093Y-87376000D01*
X176153054Y-86807715D01*
X175831147Y-86325946D01*
X175501974Y-86106000D01*
X175831147Y-85886054D01*
X176153054Y-85404285D01*
X176266093Y-84836000D01*
X176153054Y-84267715D01*
X175831147Y-83785946D01*
X175501974Y-83566000D01*
X175831147Y-83346054D01*
X176153054Y-82864285D01*
X176266093Y-82296000D01*
X176153054Y-81727715D01*
X175831147Y-81245946D01*
X175501974Y-81026000D01*
X175831147Y-80806054D01*
X176153054Y-80324285D01*
X176266093Y-79756000D01*
X176153054Y-79187715D01*
X175831147Y-78705946D01*
X175501974Y-78486000D01*
X175831147Y-78266054D01*
X176153054Y-77784285D01*
X176266093Y-77216000D01*
X176153054Y-76647715D01*
X175831147Y-76165946D01*
X175501974Y-75946000D01*
X175831147Y-75726054D01*
X176153054Y-75244285D01*
X176266093Y-74676000D01*
X176153054Y-74107715D01*
X175831147Y-73625946D01*
X175501974Y-73406000D01*
X175831147Y-73186054D01*
X176153054Y-72704285D01*
X176266093Y-72136000D01*
X176153054Y-71567715D01*
X175831147Y-71085946D01*
X175789548Y-71058150D01*
X175837317Y-71049162D01*
X176053441Y-70910090D01*
X176198431Y-70697890D01*
X176249440Y-70446000D01*
X176249440Y-68746000D01*
X176205162Y-68510683D01*
X176066090Y-68294559D01*
X175853890Y-68149569D01*
X175602000Y-68098560D01*
X173902000Y-68098560D01*
X173666683Y-68142838D01*
X173450559Y-68281910D01*
X173305569Y-68494110D01*
X173261648Y-68711000D01*
X169581779Y-68711000D01*
X169452054Y-68516853D01*
X168970285Y-68194946D01*
X168402000Y-68081907D01*
X167833715Y-68194946D01*
X167351946Y-68516853D01*
X167324150Y-68558452D01*
X167315162Y-68510683D01*
X167176090Y-68294559D01*
X166963890Y-68149569D01*
X166712000Y-68098560D01*
X165012000Y-68098560D01*
X164776683Y-68142838D01*
X164560559Y-68281910D01*
X164415569Y-68494110D01*
X164371648Y-68711000D01*
X160726820Y-68711000D01*
X160354283Y-68337812D01*
X159808681Y-68111258D01*
X159217911Y-68110743D01*
X158671914Y-68336344D01*
X158253812Y-68753717D01*
X158027258Y-69299319D01*
X158026743Y-69890089D01*
X158252344Y-70436086D01*
X158669717Y-70854188D01*
X158737550Y-70882355D01*
X158432853Y-71085946D01*
X158110946Y-71567715D01*
X157997907Y-72136000D01*
X158110946Y-72704285D01*
X158432853Y-73186054D01*
X158762026Y-73406000D01*
X158432853Y-73625946D01*
X158110946Y-74107715D01*
X157997907Y-74676000D01*
X158110946Y-75244285D01*
X158432853Y-75726054D01*
X158762026Y-75946000D01*
X158432853Y-76165946D01*
X158110946Y-76647715D01*
X157997907Y-77216000D01*
X158110946Y-77784285D01*
X158432853Y-78266054D01*
X158762026Y-78486000D01*
X158432853Y-78705946D01*
X158110946Y-79187715D01*
X157997907Y-79756000D01*
X158110946Y-80324285D01*
X158432853Y-80806054D01*
X158762026Y-81026000D01*
X158432853Y-81245946D01*
X158110946Y-81727715D01*
X157997907Y-82296000D01*
X158110946Y-82864285D01*
X158432853Y-83346054D01*
X158762026Y-83566000D01*
X158432853Y-83785946D01*
X158110946Y-84267715D01*
X157997907Y-84836000D01*
X158110946Y-85404285D01*
X158432853Y-85886054D01*
X158762026Y-86106000D01*
X158432853Y-86325946D01*
X158110946Y-86807715D01*
X157997907Y-87376000D01*
X158110946Y-87944285D01*
X158432853Y-88426054D01*
X158762026Y-88646000D01*
X158432853Y-88865946D01*
X158110946Y-89347715D01*
X157997907Y-89916000D01*
X158110946Y-90484285D01*
X158432853Y-90966054D01*
X158762026Y-91186000D01*
X158432853Y-91405946D01*
X158110946Y-91887715D01*
X157997907Y-92456000D01*
X158110946Y-93024285D01*
X158432853Y-93506054D01*
X158762026Y-93726000D01*
X158432853Y-93945946D01*
X158110946Y-94427715D01*
X157997907Y-94996000D01*
X158110946Y-95564285D01*
X158432853Y-96046054D01*
X158762026Y-96266000D01*
X158432853Y-96485946D01*
X158110946Y-96967715D01*
X157997907Y-97536000D01*
X158110946Y-98104285D01*
X158432853Y-98586054D01*
X158762026Y-98806000D01*
X158432853Y-99025946D01*
X158110946Y-99507715D01*
X157997907Y-100076000D01*
X158110946Y-100644285D01*
X158432853Y-101126054D01*
X158762026Y-101346000D01*
X158432853Y-101565946D01*
X158110946Y-102047715D01*
X157997907Y-102616000D01*
X158110946Y-103184285D01*
X158432853Y-103666054D01*
X158762026Y-103886000D01*
X158432853Y-104105946D01*
X158110946Y-104587715D01*
X157997907Y-105156000D01*
X158110946Y-105724285D01*
X158432853Y-106206054D01*
X158762026Y-106426000D01*
X158432853Y-106645946D01*
X158110946Y-107127715D01*
X157997907Y-107696000D01*
X158110946Y-108264285D01*
X158432853Y-108746054D01*
X158762026Y-108966000D01*
X158432853Y-109185946D01*
X158110946Y-109667715D01*
X157997907Y-110236000D01*
X158110946Y-110804285D01*
X158432853Y-111286054D01*
X158762026Y-111506000D01*
X158432853Y-111725946D01*
X158110946Y-112207715D01*
X157997907Y-112776000D01*
X158110946Y-113344285D01*
X158432853Y-113826054D01*
X158762026Y-114046000D01*
X158432853Y-114265946D01*
X158110946Y-114747715D01*
X157997907Y-115316000D01*
X158110946Y-115884285D01*
X158432853Y-116366054D01*
X158762026Y-116586000D01*
X158432853Y-116805946D01*
X158110946Y-117287715D01*
X157997907Y-117856000D01*
X158110946Y-118424285D01*
X158432853Y-118906054D01*
X158762026Y-119126000D01*
X158432853Y-119345946D01*
X158110946Y-119827715D01*
X157997907Y-120396000D01*
X158110946Y-120964285D01*
X158432853Y-121446054D01*
X158762026Y-121666000D01*
X158432853Y-121885946D01*
X158110946Y-122367715D01*
X157997907Y-122936000D01*
X158110946Y-123504285D01*
X158432853Y-123986054D01*
X158762026Y-124206000D01*
X158432853Y-124425946D01*
X158110946Y-124907715D01*
X157997907Y-125476000D01*
X158110946Y-126044285D01*
X158432853Y-126526054D01*
X158762026Y-126746000D01*
X158432853Y-126965946D01*
X158357936Y-127078068D01*
X155149434Y-123869566D01*
X155076750Y-123821000D01*
X154878541Y-123688561D01*
X154559000Y-123625000D01*
X143708000Y-123625000D01*
X143388459Y-123688561D01*
X143190250Y-123821000D01*
X143117566Y-123869566D01*
X140410500Y-126576632D01*
X140181093Y-126531000D01*
X140122907Y-126531000D01*
X139554622Y-126644039D01*
X139072853Y-126965946D01*
X138750946Y-127447715D01*
X138637907Y-128016000D01*
X138750946Y-128584285D01*
X139072853Y-129066054D01*
X139402026Y-129286000D01*
X139072853Y-129505946D01*
X138750946Y-129987715D01*
X138637907Y-130556000D01*
X138693193Y-130833939D01*
X137585566Y-131941566D01*
X137582283Y-131946479D01*
X137401974Y-131826000D01*
X137731147Y-131606054D01*
X138053054Y-131124285D01*
X138166093Y-130556000D01*
X138053054Y-129987715D01*
X137731147Y-129505946D01*
X137401974Y-129286000D01*
X137731147Y-129066054D01*
X138053054Y-128584285D01*
X138166093Y-128016000D01*
X138053054Y-127447715D01*
X137731147Y-126965946D01*
X137401974Y-126746000D01*
X137731147Y-126526054D01*
X138053054Y-126044285D01*
X138166093Y-125476000D01*
X138053054Y-124907715D01*
X137731147Y-124425946D01*
X137401974Y-124206000D01*
X137731147Y-123986054D01*
X138053054Y-123504285D01*
X138166093Y-122936000D01*
X138053054Y-122367715D01*
X137731147Y-121885946D01*
X137401974Y-121666000D01*
X137731147Y-121446054D01*
X138053054Y-120964285D01*
X138166093Y-120396000D01*
X138053054Y-119827715D01*
X137731147Y-119345946D01*
X137401974Y-119126000D01*
X137731147Y-118906054D01*
X138053054Y-118424285D01*
X138166093Y-117856000D01*
X138053054Y-117287715D01*
X137731147Y-116805946D01*
X137401974Y-116586000D01*
X137731147Y-116366054D01*
X138041885Y-115901000D01*
X138923189Y-115901000D01*
X138923189Y-120671000D01*
X157240811Y-120671000D01*
X157240811Y-115901000D01*
X138923189Y-115901000D01*
X138041885Y-115901000D01*
X138053054Y-115884285D01*
X138166093Y-115316000D01*
X138053054Y-114747715D01*
X137731147Y-114265946D01*
X137401974Y-114046000D01*
X137731147Y-113826054D01*
X138053054Y-113344285D01*
X138166093Y-112776000D01*
X138053054Y-112207715D01*
X137731147Y-111725946D01*
X137401974Y-111506000D01*
X137731147Y-111286054D01*
X138053054Y-110804285D01*
X138166093Y-110236000D01*
X138053054Y-109667715D01*
X137731147Y-109185946D01*
X137401974Y-108966000D01*
X137731147Y-108746054D01*
X138053054Y-108264285D01*
X138166093Y-107696000D01*
X138053054Y-107127715D01*
X137733188Y-106649000D01*
X140312095Y-106649000D01*
X140312095Y-111419000D01*
X156105905Y-111419000D01*
X156105905Y-106649000D01*
X140312095Y-106649000D01*
X137733188Y-106649000D01*
X137731147Y-106645946D01*
X137401974Y-106426000D01*
X137731147Y-106206054D01*
X138053054Y-105724285D01*
X138166093Y-105156000D01*
X138053054Y-104587715D01*
X137731147Y-104105946D01*
X137401974Y-103886000D01*
X137731147Y-103666054D01*
X138053054Y-103184285D01*
X138166093Y-102616000D01*
X138053054Y-102047715D01*
X137731147Y-101565946D01*
X137401974Y-101346000D01*
X137731147Y-101126054D01*
X138053054Y-100644285D01*
X138166093Y-100076000D01*
X138053054Y-99507715D01*
X137731147Y-99025946D01*
X137401974Y-98806000D01*
X137731147Y-98586054D01*
X138053054Y-98104285D01*
X138166093Y-97536000D01*
X138053054Y-96967715D01*
X137860790Y-96679970D01*
X146747635Y-96679970D01*
X146907418Y-96998739D01*
X147698187Y-97308723D01*
X148547387Y-97292497D01*
X149256582Y-96998739D01*
X149416365Y-96679970D01*
X148082000Y-95345605D01*
X146747635Y-96679970D01*
X137860790Y-96679970D01*
X137731147Y-96485946D01*
X137401974Y-96266000D01*
X137731147Y-96046054D01*
X138053054Y-95564285D01*
X138166093Y-94996000D01*
X138123563Y-94782187D01*
X145939277Y-94782187D01*
X145955503Y-95631387D01*
X146249261Y-96340582D01*
X146568030Y-96500365D01*
X147902395Y-95166000D01*
X148261605Y-95166000D01*
X149595970Y-96500365D01*
X149914739Y-96340582D01*
X150224723Y-95549813D01*
X150208497Y-94700613D01*
X149914739Y-93991418D01*
X149595970Y-93831635D01*
X148261605Y-95166000D01*
X147902395Y-95166000D01*
X146568030Y-93831635D01*
X146249261Y-93991418D01*
X145939277Y-94782187D01*
X138123563Y-94782187D01*
X138053054Y-94427715D01*
X137731147Y-93945946D01*
X137401974Y-93726000D01*
X137512678Y-93652030D01*
X146747635Y-93652030D01*
X148082000Y-94986395D01*
X149416365Y-93652030D01*
X149256582Y-93333261D01*
X148465813Y-93023277D01*
X147616613Y-93039503D01*
X146907418Y-93333261D01*
X146747635Y-93652030D01*
X137512678Y-93652030D01*
X137731147Y-93506054D01*
X138053054Y-93024285D01*
X138166093Y-92456000D01*
X138053054Y-91887715D01*
X137731147Y-91405946D01*
X137401974Y-91186000D01*
X137731147Y-90966054D01*
X138053054Y-90484285D01*
X138166093Y-89916000D01*
X138053054Y-89347715D01*
X137731147Y-88865946D01*
X137401974Y-88646000D01*
X137731147Y-88426054D01*
X138053054Y-87944285D01*
X138166093Y-87376000D01*
X138053054Y-86807715D01*
X137731147Y-86325946D01*
X137401974Y-86106000D01*
X137731147Y-85886054D01*
X138053054Y-85404285D01*
X138166093Y-84836000D01*
X138053054Y-84267715D01*
X137731147Y-83785946D01*
X137401974Y-83566000D01*
X137731147Y-83346054D01*
X138053054Y-82864285D01*
X138166093Y-82296000D01*
X138053054Y-81727715D01*
X137731147Y-81245946D01*
X137401974Y-81026000D01*
X137731147Y-80806054D01*
X138053054Y-80324285D01*
X138166093Y-79756000D01*
X138053054Y-79187715D01*
X137731147Y-78705946D01*
X137401974Y-78486000D01*
X137731147Y-78266054D01*
X138053054Y-77784285D01*
X138166093Y-77216000D01*
X138053054Y-76647715D01*
X137731147Y-76165946D01*
X137401974Y-75946000D01*
X137731147Y-75726054D01*
X137841432Y-75561000D01*
X145934560Y-75561000D01*
X145934560Y-76176000D01*
X145978838Y-76411317D01*
X146117910Y-76627441D01*
X146330110Y-76772431D01*
X146582000Y-76823440D01*
X149582000Y-76823440D01*
X149817317Y-76779162D01*
X150033441Y-76640090D01*
X150178431Y-76427890D01*
X150229440Y-76176000D01*
X150229440Y-73176000D01*
X150185162Y-72940683D01*
X150046090Y-72724559D01*
X149833890Y-72579569D01*
X149582000Y-72528560D01*
X146582000Y-72528560D01*
X146346683Y-72572838D01*
X146130559Y-72711910D01*
X145985569Y-72924110D01*
X145934560Y-73176000D01*
X145934560Y-73791000D01*
X137841432Y-73791000D01*
X137731147Y-73625946D01*
X137401974Y-73406000D01*
X137731147Y-73186054D01*
X138053054Y-72704285D01*
X138166093Y-72136000D01*
X138053054Y-71567715D01*
X137731147Y-71085946D01*
X137687223Y-71056597D01*
X137861698Y-70984327D01*
X138040327Y-70805699D01*
X138137000Y-70572310D01*
X138137000Y-69881750D01*
X137978250Y-69723000D01*
X136779000Y-69723000D01*
X136779000Y-69743000D01*
X136525000Y-69743000D01*
X136525000Y-69723000D01*
X135325750Y-69723000D01*
X135167000Y-69881750D01*
X135167000Y-70572310D01*
X135263673Y-70805699D01*
X135442302Y-70984327D01*
X135616777Y-71056597D01*
X135572853Y-71085946D01*
X135462568Y-71251000D01*
X122601432Y-71251000D01*
X122491147Y-71085946D01*
X122447223Y-71056597D01*
X122621698Y-70984327D01*
X122800327Y-70805699D01*
X122897000Y-70572310D01*
X122897000Y-69881750D01*
X122738250Y-69723000D01*
X121539000Y-69723000D01*
X121539000Y-69743000D01*
X121285000Y-69743000D01*
X121285000Y-69723000D01*
X120085750Y-69723000D01*
X119927000Y-69881750D01*
X119927000Y-70572310D01*
X120023673Y-70805699D01*
X120202302Y-70984327D01*
X120376777Y-71056597D01*
X120332853Y-71085946D01*
X120010946Y-71567715D01*
X119897907Y-72136000D01*
X117042000Y-72136000D01*
X117042000Y-68619690D01*
X119927000Y-68619690D01*
X119927000Y-69310250D01*
X120085750Y-69469000D01*
X121285000Y-69469000D01*
X121285000Y-68269750D01*
X121539000Y-68269750D01*
X121539000Y-69469000D01*
X122738250Y-69469000D01*
X122897000Y-69310250D01*
X122897000Y-68619690D01*
X135167000Y-68619690D01*
X135167000Y-69310250D01*
X135325750Y-69469000D01*
X136525000Y-69469000D01*
X136525000Y-68269750D01*
X136779000Y-68269750D01*
X136779000Y-69469000D01*
X137978250Y-69469000D01*
X138137000Y-69310250D01*
X138137000Y-68619690D01*
X138040327Y-68386301D01*
X137861698Y-68207673D01*
X137628309Y-68111000D01*
X136937750Y-68111000D01*
X136779000Y-68269750D01*
X136525000Y-68269750D01*
X136366250Y-68111000D01*
X135675691Y-68111000D01*
X135442302Y-68207673D01*
X135263673Y-68386301D01*
X135167000Y-68619690D01*
X122897000Y-68619690D01*
X122800327Y-68386301D01*
X122621698Y-68207673D01*
X122388309Y-68111000D01*
X121697750Y-68111000D01*
X121539000Y-68269750D01*
X121285000Y-68269750D01*
X121126250Y-68111000D01*
X120435691Y-68111000D01*
X120202302Y-68207673D01*
X120023673Y-68386301D01*
X119927000Y-68619690D01*
X117042000Y-68619690D01*
X117042000Y-59878619D01*
X117652613Y-59878619D01*
X117992155Y-60700372D01*
X118620321Y-61329636D01*
X119441481Y-61670611D01*
X120330619Y-61671387D01*
X121152372Y-61331845D01*
X121781636Y-60703679D01*
X122122611Y-59882519D01*
X122122759Y-59712661D01*
X166242758Y-59712661D01*
X166454990Y-60226303D01*
X166847630Y-60619629D01*
X167360900Y-60832757D01*
X167916661Y-60833242D01*
X168430303Y-60621010D01*
X168823629Y-60228370D01*
X168916123Y-60005619D01*
X173786613Y-60005619D01*
X174126155Y-60827372D01*
X174754321Y-61456636D01*
X175575481Y-61797611D01*
X176464619Y-61798387D01*
X177286372Y-61458845D01*
X177915636Y-60830679D01*
X178256611Y-60009519D01*
X178257387Y-59120381D01*
X177917845Y-58298628D01*
X177289679Y-57669364D01*
X176468519Y-57328389D01*
X175579381Y-57327613D01*
X174757628Y-57667155D01*
X174128364Y-58295321D01*
X173787389Y-59116481D01*
X173786613Y-60005619D01*
X168916123Y-60005619D01*
X169036757Y-59715100D01*
X169037242Y-59159339D01*
X168825010Y-58645697D01*
X168432370Y-58252371D01*
X167919100Y-58039243D01*
X167363339Y-58038758D01*
X166849697Y-58250990D01*
X166456371Y-58643630D01*
X166243243Y-59156900D01*
X166242758Y-59712661D01*
X122122759Y-59712661D01*
X122123387Y-58993381D01*
X121783845Y-58171628D01*
X121155679Y-57542364D01*
X120334519Y-57201389D01*
X119445381Y-57200613D01*
X118623628Y-57540155D01*
X117994364Y-58168321D01*
X117653389Y-58989481D01*
X117652613Y-59878619D01*
X117042000Y-59878619D01*
X117042000Y-56590000D01*
X179122000Y-56590000D01*
X179122000Y-152706000D01*
M02*
