M48
;DRILL file {KiCad 4.0.7-e2-6376~58~ubuntu16.04.1} date Tue Oct 16 16:27:17 2018
;FORMAT={-:-/ absolute / inch / decimal}
FMAT,2
INCH,TZ
T1C0.039
T2C0.059
%
G90
G05
M72
T1
X4.78Y-2.74
X4.78Y-2.84
X4.78Y-2.94
X4.78Y-3.04
X4.78Y-3.14
X4.78Y-3.24
X4.78Y-3.34
X4.78Y-3.44
X4.78Y-3.54
X4.78Y-3.64
X4.78Y-3.74
X4.78Y-3.84
X4.78Y-3.94
X4.78Y-4.04
X4.78Y-4.14
X4.78Y-4.24
X4.78Y-4.34
X4.78Y-4.44
X4.78Y-4.54
X4.78Y-4.64
X4.78Y-4.74
X4.78Y-4.84
X4.78Y-4.94
X4.78Y-5.04
X4.78Y-5.14
X4.78Y-5.24
X4.78Y-5.34
X5.38Y-2.74
X5.38Y-2.84
X5.38Y-2.94
X5.38Y-3.04
X5.38Y-3.14
X5.38Y-3.24
X5.38Y-3.34
X5.38Y-3.44
X5.38Y-3.54
X5.38Y-3.64
X5.38Y-3.74
X5.38Y-3.84
X5.38Y-3.94
X5.38Y-4.04
X5.38Y-4.14
X5.38Y-4.24
X5.38Y-4.34
X5.38Y-4.44
X5.38Y-4.54
X5.38Y-4.64
X5.38Y-4.74
X5.38Y-4.84
X5.38Y-4.94
X5.38Y-5.04
X5.38Y-5.14
X5.38Y-5.24
X5.38Y-5.34
X5.38Y-5.74
X5.38Y-5.84
X5.48Y-5.74
X5.48Y-5.84
X5.5178Y-5.04
X5.5178Y-5.14
X5.5178Y-5.24
X5.5178Y-5.34
X5.58Y-5.74
X5.58Y-5.84
X5.6178Y-5.14
X5.6178Y-5.24
X5.6178Y-5.34
X5.68Y-5.74
X5.68Y-5.84
X5.7178Y-5.14
X5.7178Y-5.24
X5.7178Y-5.34
X5.78Y-5.74
X5.78Y-5.84
X5.8178Y-5.14
X5.8178Y-5.24
X5.8178Y-5.34
X5.88Y-5.74
X5.88Y-5.84
X5.9178Y-5.14
X5.9178Y-5.24
X5.9178Y-5.34
X5.98Y-5.74
X5.98Y-5.84
X6.0178Y-5.14
X6.0178Y-5.24
X6.0178Y-5.34
X6.08Y-5.74
X6.08Y-5.84
X6.18Y-5.74
X6.18Y-5.84
X6.28Y-2.74
X6.28Y-2.84
X6.28Y-2.94
X6.28Y-3.04
X6.28Y-3.14
X6.28Y-3.24
X6.28Y-3.34
X6.28Y-3.44
X6.28Y-3.54
X6.28Y-3.64
X6.28Y-3.74
X6.28Y-3.84
X6.28Y-3.94
X6.28Y-4.04
X6.28Y-4.14
X6.28Y-4.24
X6.28Y-4.34
X6.28Y-4.44
X6.28Y-4.54
X6.28Y-4.64
X6.28Y-4.74
X6.28Y-4.84
X6.28Y-4.94
X6.28Y-5.04
X6.28Y-5.14
X6.28Y-5.24
X6.28Y-5.3384
X6.28Y-5.74
X6.28Y-5.84
X6.53Y-2.74
X6.63Y-2.74
X6.88Y-2.74
X6.88Y-2.84
X6.88Y-2.94
X6.88Y-3.04
X6.88Y-3.14
X6.88Y-3.24
X6.88Y-3.34
X6.88Y-3.44
X6.88Y-3.54
X6.88Y-3.64
X6.88Y-3.74
X6.88Y-3.84
X6.88Y-3.94
X6.88Y-4.04
X6.88Y-4.14
X6.88Y-4.24
X6.88Y-4.34
X6.88Y-4.44
X6.88Y-4.54
X6.88Y-4.64
X6.88Y-4.74
X6.88Y-4.84
X6.88Y-4.94
X6.88Y-5.04
X6.88Y-5.14
X6.88Y-5.24
X6.88Y-5.34
T2
X5.83Y-2.94
X5.83Y-3.7467
T0
M30
