G04 #@! TF.FileFunction,Soldermask,Top*
%FSLAX46Y46*%
G04 Gerber Fmt 4.6, Leading zero omitted, Abs format (unit mm)*
G04 Created by KiCad (PCBNEW 4.0.7-e2-6376~58~ubuntu16.04.1) date Tue Oct 16 16:27:12 2018*
%MOMM*%
%LPD*%
G01*
G04 APERTURE LIST*
%ADD10C,0.100000*%
%ADD11C,3.600000*%
%ADD12C,2.100000*%
%ADD13O,2.100000X2.100000*%
%ADD14R,2.100000X2.100000*%
%ADD15C,3.400000*%
%ADD16R,3.400000X3.400000*%
G04 APERTURE END LIST*
D10*
D11*
X176022000Y-149606000D03*
X120142000Y-149606000D03*
X119888000Y-59436000D03*
D12*
X159512000Y-69596000D03*
D13*
X159512000Y-72136000D03*
X159512000Y-74676000D03*
X159512000Y-77216000D03*
X159512000Y-79756000D03*
X159512000Y-82296000D03*
X159512000Y-84836000D03*
X159512000Y-87376000D03*
X159512000Y-89916000D03*
X159512000Y-92456000D03*
X159512000Y-94996000D03*
X159512000Y-97536000D03*
X159512000Y-100076000D03*
X159512000Y-102616000D03*
X159512000Y-105156000D03*
X159512000Y-107696000D03*
X159512000Y-110236000D03*
X159512000Y-112776000D03*
X159512000Y-115316000D03*
X159512000Y-117856000D03*
X159512000Y-120396000D03*
X159512000Y-122936000D03*
X159512000Y-125476000D03*
X159512000Y-128016000D03*
X159512000Y-130556000D03*
X159512000Y-133096000D03*
X159512000Y-135596000D03*
X136652000Y-133096000D03*
X136652000Y-130556000D03*
X136652000Y-122936000D03*
X136652000Y-125476000D03*
X136652000Y-128016000D03*
X136652000Y-135636000D03*
X136652000Y-77216000D03*
X136652000Y-79756000D03*
X136652000Y-82296000D03*
X136652000Y-84836000D03*
X136652000Y-74676000D03*
D14*
X136652000Y-69596000D03*
D13*
X136652000Y-72136000D03*
X136652000Y-87376000D03*
X136652000Y-89916000D03*
X136652000Y-92456000D03*
X136652000Y-94996000D03*
X136652000Y-97536000D03*
X136652000Y-100076000D03*
X136652000Y-102616000D03*
X136652000Y-105156000D03*
X136652000Y-107696000D03*
X136652000Y-110236000D03*
X136652000Y-112776000D03*
X136652000Y-115316000D03*
X136652000Y-117856000D03*
X136652000Y-120396000D03*
X140152000Y-135636000D03*
X140152000Y-128016000D03*
X140152000Y-133096000D03*
X140152000Y-130556000D03*
X142692000Y-133096000D03*
X142692000Y-135636000D03*
X142692000Y-130556000D03*
X145232000Y-135636000D03*
X145232000Y-133096000D03*
X145232000Y-130556000D03*
X147772000Y-135636000D03*
X147772000Y-133096000D03*
X147772000Y-130556000D03*
X150312000Y-133096000D03*
X150312000Y-135636000D03*
X150312000Y-130556000D03*
X152852000Y-133096000D03*
X152852000Y-135636000D03*
X152852000Y-130556000D03*
D15*
X148082000Y-95166000D03*
D16*
X148082000Y-74676000D03*
D14*
X121412000Y-69596000D03*
D13*
X121412000Y-72136000D03*
X121412000Y-74676000D03*
X121412000Y-77216000D03*
X121412000Y-79756000D03*
X121412000Y-82296000D03*
X121412000Y-84836000D03*
X121412000Y-87376000D03*
X121412000Y-89916000D03*
X121412000Y-92456000D03*
X121412000Y-94996000D03*
X121412000Y-97536000D03*
X121412000Y-100076000D03*
X121412000Y-102616000D03*
X121412000Y-105156000D03*
X121412000Y-107696000D03*
X121412000Y-110236000D03*
X121412000Y-112776000D03*
X121412000Y-115316000D03*
X121412000Y-117856000D03*
X121412000Y-120396000D03*
X121412000Y-122936000D03*
X121412000Y-125476000D03*
X121412000Y-128016000D03*
X121412000Y-130556000D03*
X121412000Y-133096000D03*
X121412000Y-135636000D03*
D14*
X174752000Y-69596000D03*
D13*
X174752000Y-72136000D03*
X174752000Y-74676000D03*
X174752000Y-77216000D03*
X174752000Y-79756000D03*
X174752000Y-82296000D03*
X174752000Y-84836000D03*
X174752000Y-87376000D03*
X174752000Y-89916000D03*
X174752000Y-92456000D03*
X174752000Y-94996000D03*
X174752000Y-97536000D03*
X174752000Y-100076000D03*
X174752000Y-102616000D03*
X174752000Y-105156000D03*
X174752000Y-107696000D03*
X174752000Y-110236000D03*
X174752000Y-112776000D03*
X174752000Y-115316000D03*
X174752000Y-117856000D03*
X174752000Y-120396000D03*
X174752000Y-122936000D03*
X174752000Y-125476000D03*
X174752000Y-128016000D03*
X174752000Y-130556000D03*
X174752000Y-133096000D03*
X174752000Y-135636000D03*
D14*
X165862000Y-69596000D03*
D13*
X168402000Y-69596000D03*
D14*
X136652000Y-145796000D03*
D13*
X136652000Y-148336000D03*
X139192000Y-145796000D03*
X139192000Y-148336000D03*
X141732000Y-145796000D03*
X141732000Y-148336000D03*
X144272000Y-145796000D03*
X144272000Y-148336000D03*
X146812000Y-145796000D03*
X146812000Y-148336000D03*
X149352000Y-145796000D03*
X149352000Y-148336000D03*
X151892000Y-145796000D03*
X151892000Y-148336000D03*
X154432000Y-145796000D03*
X154432000Y-148336000D03*
X156972000Y-145796000D03*
X156972000Y-148336000D03*
X159512000Y-145796000D03*
X159512000Y-148336000D03*
D11*
X176022000Y-59563000D03*
M02*
